<?xml version="1.0" encoding="utf-8"?>
<!-- Generator: Adobe Illustrator 16.0.0, SVG Export Plug-In . SVG Version: 6.00 Build 0)  -->
<!DOCTYPE svg PUBLIC "-//W3C//DTD SVG 1.1//EN" "http://www.w3.org/Graphics/SVG/1.1/DTD/svg11.dtd">
<svg version="1.1" id="Architect_1_" xmlns="http://www.w3.org/2000/svg" xmlns:xlink="http://www.w3.org/1999/xlink" x="0px"
	 y="0px" width="512px" height="512px" viewBox="0 0 512 512" enable-background="new 0 0 512 512" xml:space="preserve">
<circle id="Background_7_" fill="#009244" cx="256" cy="256" r="256"/>
<path id="Shadow" opacity="0.1" d="M511.679,268.858L316.865,74.045h-61.37v437.948c0.168,0.001,0.335,0.007,0.504,0.007
	C393.073,512,504.98,404.27,511.679,268.858z"/>
<g id="Architect">
	<path fill="#FFD0AE" d="M349.788,360.184c-74.441,0-57.834-36.507-62.884-73.06h-61.693c-5.05,36.553,11.558,73.06-62.884,73.06
		c-47.574,0-63.807,20.847-63.807,66.709v30.9C141.96,491.754,196.643,512,256.058,512c59.414,0,114.097-20.245,157.537-54.207
		v-30.9C413.595,381.03,397.362,360.184,349.788,360.184z"/>
	<path opacity="0.1" d="M288.253,308.324c-0.162-6.264-0.377-12.73-1.271-19.2h-61.693c-0.89,6.439-1.107,12.877-1.268,19.114
		c8.926,5.721,19.539,9.159,32.184,9.159C268.785,317.397,279.354,313.993,288.253,308.324z"/>
	<ellipse fill="#FFD0AE" cx="181.323" cy="223.44" rx="13.799" ry="16.269"/>
	<ellipse fill="#FFD0AE" cx="331.085" cy="223.44" rx="13.799" ry="16.269"/>
	<path fill="#FFD0AE" d="M269.927,106.669h-27.445c-36.089,0-65.346,42.325-65.346,78.415c0,0,2.113,126.77,79.068,126.77
		c76.955,0,79.068-126.77,79.068-126.77C335.272,148.994,306.016,106.669,269.927,106.669z"/>
	<path fill="#754C29" d="M174.972,209.453c-11.648-17.49-22.337-111.703,40.549-122.576C272.635,47,377.888,103.44,338.415,209.453
		l-7.457,4.695c6.677-28.814-10.873-44.235-23.394-44.235c-60.93,0-75.088-61.176-92.043-38.626
		c-15.387,20.463-28.387,21.463-33.206,50.626c-2.693,16.296,0.114,32.235,0.114,32.235L174.972,209.453z"/>
	<path opacity="0.1" d="M307.564,169.913c-60.93,0-75.088-61.176-92.043-38.626c-15.387,20.463-28.387,21.463-33.206,50.626
		c-1.013,6.132-1.248,12.212-1.146,17.412c0.08-4.115,0.403-8.582,1.146-13.079c4.819-29.163,17.819-30.163,33.206-50.626
		c16.956-22.55,31.113,38.626,92.043,38.626c10.261,0,23.889,10.362,24.803,29.959C333.421,181.803,318.558,169.913,307.564,169.913
		z"/>
	<path fill="#E4E5E6" d="M349.673,360.184c-9.712,0-17.861-0.627-24.725-1.788l-69.006,7.519l-69.006-7.519
		c-6.863,1.161-15.012,1.788-24.724,1.788c-47.574,0-63.807,20.847-63.807,66.709v30.9C141.846,491.754,196.528,512,255.942,512
		c59.415,0,114.097-20.245,157.538-54.207v-30.9C413.48,381.03,397.247,360.184,349.673,360.184z"/>
	<path fill="#FCF3C5" d="M349.673,360.184c-9.712,0-17.861-0.627-24.725-1.788l-69.006,7.519l-69.006-7.519
		c-6.863,1.161-15.012,1.788-24.724,1.788c-47.574,0-63.807,20.847-63.807,66.709v30.9C141.846,491.754,196.528,512,255.942,512
		c59.415,0,114.097-20.245,157.538-54.207v-30.9C413.48,381.03,397.247,360.184,349.673,360.184z"/>
	<g>
		<path fill="#594A42" d="M287.616,366.371h-63.232l21.896,28.781l-5.858,116.395c4.989,0.289,10.012,0.453,15.074,0.453
			c5.403,0,10.76-0.188,16.08-0.518l-5.855-116.33L287.616,366.371z"/>
		<path opacity="0.2" d="M246.28,395.152h19.44c0,0-4.935,1.769-9.72,1.769C251.214,396.921,246.28,395.152,246.28,395.152z"/>
	</g>
	<polygon fill="#C0B399" points="221.616,332.181 216.874,332.181 186.889,358.057 219.07,403.615 256.135,365.914 	"/>
	<polygon fill="#C0B399" points="290.758,332.181 295.396,332.181 325.381,358.057 293.199,403.615 256.135,365.914 	"/>
	<path opacity="0.1" d="M219.07,407.608l37.065-38.708l37.064,38.708l35.169-48.722l-0.025-0.007
		c-1.094-0.15-2.167-0.31-3.201-0.484l-31.942,45.22l-37.064-37.701l-37.065,37.701l-31.941-45.22
		c-1.034,0.175-2.108,0.334-3.202,0.484l-0.025,0.007L219.07,407.608z"/>
	<g>
		<path fill="#F2B924" d="M256.204,54.784c-71.455,0-94.063,56.393-94.063,90.773c0,0,36.6,10.305,94.063,10.305
			c57.462,0,94.063-10.305,94.063-10.305C350.267,111.177,327.659,54.784,256.204,54.784z"/>
		<path opacity="0.1" d="M212.547,150.699h87.314c-0.657-32.341-2.288-79.381-25.87-94.642c-5.563-0.825-11.481-1.272-17.787-1.272
			c-6.306,0-12.224,0.448-17.788,1.272C214.834,71.317,213.204,118.358,212.547,150.699z"/>
		<g>
			<path fill="#F2B924" d="M256.204,52.104c-37.265,0-38.573,59.516-39.287,98.595h78.573
				C294.776,111.62,293.469,52.104,256.204,52.104z"/>
		</g>
		<g opacity="0.1">
			<path d="M350.264,145.252c-0.014-3.42-0.252-7.053-0.735-10.825c-10.299,2.494-44.443,9.745-93.324,9.745
				c-48.881,0-83.025-7.251-93.324-9.745c-0.484,3.771-0.722,7.405-0.735,10.825c9.366,2.312,43.999,9.923,94.06,9.923
				C306.265,155.176,340.897,147.564,350.264,145.252z"/>
		</g>
		<g>
			<path fill="#F2B924" d="M256.204,147.258c-54.502,0-90.706-9.019-95.935-10.401c-0.46,3.77-0.681,11.402-0.681,14.821
				c0,0,37.593,10.584,96.615,10.584c59.021,0,96.614-10.584,96.614-10.584c0-3.419-0.22-11.051-0.68-14.821
				C346.91,138.239,310.706,147.258,256.204,147.258z"/>
		</g>
	</g>
	<path fill="#4F4E3D" d="M291.269,201.25c-15.675,0-27.971,7.016-28.125,16.001c-1.721-0.46-4.062-0.849-7.075-0.849
		c-3.013,0-5.353,0.388-7.075,0.849c-0.154-8.986-12.449-16.001-28.125-16.001c-15.775,0-28.132,7.104-28.132,16.171
		c0,9.068,12.357,16.172,28.132,16.172c13.099,0,23.833-4.899,27.102-11.753c0.986-0.46,3.609-1.438,8.099-1.438
		c4.46,0,7.11,0.985,8.102,1.443c3.271,6.851,14.003,11.748,27.098,11.748c15.775,0,28.133-7.104,28.133-16.172
		C319.401,208.354,307.044,201.25,291.269,201.25z M220.869,229.593c-13.081,0-24.132-5.574-24.132-12.172
		s11.051-12.171,24.132-12.171c13.082,0,24.133,5.574,24.133,12.171S233.95,229.593,220.869,229.593z M291.269,229.593
		c-13.081,0-24.132-5.574-24.132-12.172s11.051-12.171,24.132-12.171s24.133,5.574,24.133,12.171S304.35,229.593,291.269,229.593z"
		/>
</g>
</svg>
