<?xml version="1.0" encoding="utf-8"?>
<!-- Generator: Adobe Illustrator 16.0.0, SVG Export Plug-In . SVG Version: 6.00 Build 0)  -->
<!DOCTYPE svg PUBLIC "-//W3C//DTD SVG 1.1//EN" "http://www.w3.org/Graphics/SVG/1.1/DTD/svg11.dtd">
<svg version="1.1" id="Athlete_1_" xmlns="http://www.w3.org/2000/svg" xmlns:xlink="http://www.w3.org/1999/xlink" x="0px" y="0px"
	 width="512px" height="512px" viewBox="0 0 512 512" enable-background="new 0 0 512 512" xml:space="preserve">
<circle id="Background_7_" fill="#009244" cx="256" cy="256" r="256"/>
<path opacity="0.1" d="M506.504,308.949L308.49,110.935H256V512C379.231,512,482.111,424.925,506.504,308.949z"/>
<g id="Athlete">
	<path fill="#EFB484" d="M349.73,360.184c-74.441,0-57.833-36.507-62.884-73.06h-61.693c-5.05,36.553,11.558,73.06-62.884,73.06
		c-47.574,0-63.807,20.847-63.807,66.709v30.9C141.903,491.754,196.585,512,256,512c59.415,0,114.097-20.245,157.537-54.207v-30.9
		C413.537,381.03,397.305,360.184,349.73,360.184z"/>
	<path opacity="0.1" d="M288.117,308.324c-0.161-6.264-0.377-12.73-1.271-19.2h-61.693c-0.89,6.439-1.107,12.877-1.269,19.114
		c8.926,5.721,19.539,9.159,32.184,9.159C268.65,317.397,279.22,313.993,288.117,308.324z"/>
	<path fill="#0C2847" d="M349.73,360.184c-22.57,0-36.761-3.36-45.732-9.056c-6.058,20.795-25.247,35.996-47.998,35.996
		c-22.751,0-41.94-15.201-47.998-35.996c-8.972,5.695-23.163,9.056-45.733,9.056c-47.574,0-63.807,20.847-63.807,66.709v30.9
		C141.903,491.754,196.585,512,256,512c59.415,0,114.097-20.245,157.537-54.207v-30.9
		C413.537,381.03,397.305,360.184,349.73,360.184z"/>
	<ellipse fill="#EFB484" cx="181.188" cy="223.44" rx="13.799" ry="16.269"/>
	<ellipse fill="#EFB484" cx="330.95" cy="223.44" rx="13.799" ry="16.269"/>
	<path fill="#EFB484" d="M269.791,106.669h-27.445c-36.089,0-65.345,42.325-65.345,78.415c0,0,2.112,126.77,79.068,126.77
		s79.068-126.77,79.068-126.77C335.137,148.994,305.881,106.669,269.791,106.669z"/>
	<path fill="#66554B" d="M270.974,95.935h-29.809c-39.198,0-70.974,46.753-70.974,86.619c0,0,0.192,11.523,2.432,27.946l8.634,3
		c-2.078-14.93,8.744-19.667,8.744-38.417s16.256-38.415,52.345-38.415h27.445c36.09,0,52.346,19.665,52.346,38.415
		s10.821,23.486,8.744,38.417l8.634-3c2.239-16.423,2.433-27.946,2.433-27.946C341.947,142.688,310.171,95.935,270.974,95.935z"/>
	<path opacity="0.1" d="M322.137,175.083c0-18.75-16.256-38.415-52.346-38.415h-27.445c-36.089,0-52.345,19.665-52.345,38.415
		c0,17.685-9.622,22.907-8.973,35.969c0.584-11.31,8.973-16.957,8.973-33.469c0-18.75,16.256-38.415,52.345-38.415h27.445
		c36.09,0,52.346,19.665,52.346,38.415c0,16.513,8.389,22.16,8.973,33.469C331.758,197.99,322.137,192.768,322.137,175.083z"/>
	<path fill="#EDF727" d="M329.027,377.188c-9.834,0-14.623-0.82-20.804-2.318c-10.25,16.359-31.425,27.246-52.155,27.246
		c-20.742,0-41.924-10.898-52.171-27.273c-6.2,1.516-11.028,2.346-20.925,2.346c-37.065,0-49.713,16.241-49.713,51.974v51.541
		C169.703,500.651,211.525,512,256,512c44.476,0,86.297-11.349,122.74-31.297v-51.542
		C378.74,393.429,366.093,377.188,329.027,377.188z"/>
	<path opacity="0.7" fill="#FFFFFF" d="M282.086,437.599c10.436,10.435,5.767,32.412-3.718,45.175
		c1.302-0.934,2.548-1.98,3.718-3.149c11.604-11.605,18.676-37.492,7.071-49.097c-11.605-11.604-47.491,5.466-59.096,17.071
		c-1.17,1.17-12.216,12.416-13.15,13.717C229.674,451.832,271.65,427.163,282.086,437.599z"/>
</g>
</svg>
