<?xml version="1.0" encoding="utf-8"?>
<!-- Generator: Adobe Illustrator 16.0.0, SVG Export Plug-In . SVG Version: 6.00 Build 0)  -->
<!DOCTYPE svg PUBLIC "-//W3C//DTD SVG 1.1//EN" "http://www.w3.org/Graphics/SVG/1.1/DTD/svg11.dtd">
<svg version="1.1" id="Bodyguard_1_" xmlns="http://www.w3.org/2000/svg" xmlns:xlink="http://www.w3.org/1999/xlink" x="0px"
	 y="0px" width="512px" height="512px" viewBox="0 0 512 512" enable-background="new 0 0 512 512" xml:space="preserve">
<circle id="Background_11_" fill="#1B9BAA" cx="256" cy="256" r="256"/>
<path id="Shadow" opacity="0.1" d="M509.788,289.715L317.151,97.079H256V512C385.956,512,493.282,415.164,509.788,289.715z"/>
<g id="Bodyguard">
	<path fill="#FFD0AE" d="M349.73,360.184c-74.441,0-57.833-36.507-62.884-73.06h-61.693c-5.05,36.553,11.558,73.06-62.884,73.06
		c-47.574,0-63.807,20.847-63.807,66.709v30.9C141.903,491.754,196.585,512,256,512c59.415,0,114.097-20.245,157.537-54.207v-30.9
		C413.537,381.03,397.305,360.184,349.73,360.184z"/>
	<path opacity="0.1" d="M288.117,308.324c-0.161-6.264-0.377-12.73-1.271-19.2h-61.693c-0.89,6.439-1.107,12.877-1.269,19.114
		c8.926,5.721,19.539,9.159,32.184,9.159C268.65,317.397,279.22,313.993,288.117,308.324z"/>
	<path fill="#EFF0F0" d="M349.73,360.184c-9.712,0-17.861-0.627-24.725-1.788L256,365.914l-69.006-7.519
		c-6.863,1.161-15.012,1.788-24.724,1.788c-47.574,0-63.807,20.847-63.807,66.709v30.9C141.903,491.754,196.585,512,256,512
		c59.415,0,114.097-20.245,157.537-54.207v-30.9C413.537,381.03,397.305,360.184,349.73,360.184z"/>
	<path fill="#58595B" d="M287.616,366.371h-63.232l21.896,28.781l-5.858,116.395c4.989,0.289,10.012,0.453,15.074,0.453
		c5.403,0,10.76-0.188,16.08-0.518l-5.855-116.33L287.616,366.371z"/>
	<path fill="#231F20" d="M349.73,360.184c-9.712,0-17.861-0.627-24.725-1.788l-68.937,137.271l-69.075-137.271
		c-6.863,1.161-15.012,1.788-24.724,1.788c-47.574,0-63.807,20.847-63.807,66.709v30.9C141.903,491.754,196.585,512,256,512
		c59.415,0,114.097-20.245,157.537-54.207v-30.9C413.537,381.03,397.305,360.184,349.73,360.184z"/>
	<path opacity="0.2" d="M246.28,395.152h19.44c0,0-4.935,1.769-9.72,1.769C251.214,396.921,246.28,395.152,246.28,395.152z"/>
	<polygon fill="#EFF0F0" points="221.48,332.181 216.739,332.181 186.754,358.057 218.936,403.615 256,365.914 	"/>
	<polygon fill="#EFF0F0" points="290.623,332.181 295.261,332.181 325.246,358.057 293.064,403.615 256,365.914 	"/>
	<ellipse fill="#FFD0AE" cx="181.188" cy="223.44" rx="13.799" ry="16.269"/>
	<ellipse fill="#FFD0AE" cx="330.95" cy="223.44" rx="13.799" ry="16.269"/>
	<path fill="#FFD0AE" d="M269.791,106.669h-27.445c-36.089,0-65.345,42.325-65.345,78.415c0,0,2.112,126.77,79.068,126.77
		s79.068-126.77,79.068-126.77C335.137,148.994,305.881,106.669,269.791,106.669z"/>
	<path opacity="0.1" d="M218.936,407.608L256,368.9l37.064,38.708l35.168-48.722l-0.024-0.007c-1.094-0.15-2.167-0.31-3.202-0.484
		l-31.941,45.22L256,365.914l-37.064,37.701l-31.942-45.22c-1.034,0.175-2.108,0.334-3.202,0.484l-0.025,0.007L218.936,407.608z"/>
	<polygon fill="#231F20" points="208.443,339.34 162.27,360.184 201.484,395.152 182.15,407.608 256.069,495.667 	"/>
	<polygon fill="#231F20" points="303.694,339.34 349.868,360.184 310.654,395.152 329.987,407.608 256.069,495.667 	"/>
	<path opacity="0.1" d="M349.898,360.184l-39.329,34.969l2.604,1.678l40.395-36.595
		C352.362,360.206,351.147,360.184,349.898,360.184z"/>
	<path opacity="0.1" d="M161.904,360.184l39.328,34.969l-2.604,1.678l-40.395-36.595
		C159.439,360.206,160.654,360.184,161.904,360.184z"/>
	<polygon opacity="0.1" points="327.808,410.204 256.069,495.667 184.33,410.204 182.15,411.608 256.069,499.928 329.987,411.608 	
		"/>
	<path fill="#231F20" d="M337.729,209.468c11.648-17.49,16.543-116.979-38.549-116.576
		c-36.241-43.737-156.908,3.597-124.894,116.576l7.457,4.695c0,0-0.409-20.461,2.394-29.234s21.469-78.104,108.361-55.14
		c17.107,42.033,32.687,21.367,37.889,60.14c2.195,16.371-0.114,24.234-0.114,24.234L337.729,209.468z"/>
	<path opacity="0.1" d="M330.346,189.866c-5.201-38.773-20.78-18.107-37.889-60.14c-86.892-22.964-105.559,46.367-108.361,55.14
		c-2.545,7.97-2.441,25.581-2.401,28.741c0.072-6.655,0.488-18.085,2.401-24.074c2.802-8.773,21.469-78.104,108.361-55.14
		c17.108,42.033,32.688,21.367,37.889,60.14c0.552,4.118,0.818,7.695,0.909,10.746C331.372,201.43,331.211,196.319,330.346,189.866z
		"/>
	<path opacity="0.7" d="M194.41,210.46c-5.205,4.899-3.814,23.47,0,27.285s43.067,1.538,45.516,0
		c2.45-1.537,4.695-19.022,1.633-21.905C238.497,212.958,199.615,205.56,194.41,210.46z"/>
	<path fill="#231F20" d="M318.45,208.884c-5.797-5.457-49.096,2.782-52.506,5.991c-0.055,0.052-0.104,0.12-0.156,0.18
		c-1.311-0.646-4.467-1.768-10.643-1.768c-6.176,0-9.333,1.121-10.643,1.768c-0.052-0.06-0.102-0.128-0.157-0.18
		c-3.409-3.209-46.709-11.448-52.505-5.991s-4.248,26.137,0,30.384c4.248,4.248,47.959,1.712,50.687,0
		c1.627-1.021,3.172-8.357,3.431-14.795c1.746-0.579,4.647-1.186,9.187-1.186c4.539,0,7.44,0.607,9.187,1.186
		c0.26,6.438,1.805,13.774,3.431,14.795c2.728,1.712,46.439,4.248,50.688,0C322.697,235.021,324.246,214.341,318.45,208.884z
		 M239.926,237.745c-2.449,1.538-41.702,3.814-45.516,0s-5.205-22.385,0-27.285c5.205-4.9,44.087,2.498,47.149,5.38
		C244.621,218.722,242.375,236.208,239.926,237.745z M315.881,237.745c-3.814,3.814-43.067,1.538-45.517,0
		c-2.449-1.537-4.694-19.022-1.633-21.905s41.944-10.28,47.149-5.38C321.086,215.359,319.695,233.93,315.881,237.745z"/>
	<path opacity="0.7" d="M315.881,210.46c5.205,4.899,3.814,23.47,0,27.285s-43.067,1.538-45.517,0
		c-2.449-1.537-4.694-19.022-1.633-21.905S310.676,205.56,315.881,210.46z"/>
</g>
</svg>
