<?xml version="1.0" encoding="utf-8"?>
<!-- Generator: Adobe Illustrator 16.0.0, SVG Export Plug-In . SVG Version: 6.00 Build 0)  -->
<!DOCTYPE svg PUBLIC "-//W3C//DTD SVG 1.1//EN" "http://www.w3.org/Graphics/SVG/1.1/DTD/svg11.dtd">
<svg version="1.1" id="Ship_Captain_1_" xmlns="http://www.w3.org/2000/svg" xmlns:xlink="http://www.w3.org/1999/xlink" x="0px"
	 y="0px" width="512px" height="512px" viewBox="0 0 512 512" enable-background="new 0 0 512 512" xml:space="preserve">
<circle id="Background_8_" fill="#1B9BAA" cx="256" cy="256" r="256"/>
<path id="Shadow" opacity="0.1" d="M512,256c0-8.171-0.399-16.248-1.148-24.223L355.064,75.99h-99.467v436.005
	c0.135,0,0.268,0.005,0.402,0.005C397.386,512,512,397.386,512,256z"/>
<g id="Ship_Captain">
	<path fill="#FFFFFF" d="M379.994,124.897c0,36.838-55.438,66.701-123.823,66.701c-68.385,0-123.823-29.863-123.823-66.701
		s55.438-90.701,123.823-90.701C324.557,34.196,379.994,88.059,379.994,124.897z"/>
	<path fill="#FFD0AE" d="M349.833,360.184c-74.442,0-57.834-36.507-62.884-73.06h-61.694c-5.05,36.553,11.558,73.06-62.884,73.06
		c-47.574,0-63.807,20.847-63.807,66.709v30.9C142.005,491.754,196.688,512,256.103,512c59.414,0,114.097-20.245,157.537-54.207
		v-30.9C413.64,381.03,397.406,360.184,349.833,360.184z"/>
	<path opacity="0.1" d="M288.22,308.324c-0.162-6.264-0.377-12.73-1.271-19.2h-61.694c-0.89,6.439-1.107,12.877-1.269,19.114
		c8.926,5.721,19.539,9.159,32.184,9.159C268.752,317.397,279.321,313.993,288.22,308.324z"/>
	<path fill="#F9F9F9" d="M349.833,360.184c-9.712,0-17.861-0.627-24.725-1.788l-69.006,7.519l-69.006-7.519
		c-6.863,1.161-15.013,1.788-24.725,1.788c-47.574,0-63.807,20.847-63.807,66.709v30.9C142.005,491.754,196.688,512,256.103,512
		c59.414,0,114.097-20.245,157.537-54.207v-30.9C413.64,381.03,397.406,360.184,349.833,360.184z"/>
	<path fill="#414042" d="M287.719,366.371h-63.232l21.896,28.781l-5.858,116.395c4.989,0.289,10.012,0.453,15.074,0.453
		c5.402,0,10.761-0.188,16.08-0.518l-5.855-116.33L287.719,366.371z"/>
	<path opacity="0.2" d="M246.382,395.152h19.44c0,0-4.935,1.769-9.72,1.769C251.317,396.921,246.382,395.152,246.382,395.152z"/>
	<polygon fill="#FFFFFF" points="221.583,332.181 216.841,332.181 186.856,358.057 219.038,403.615 256.103,365.914 	"/>
	<polygon fill="#FFFFFF" points="290.726,332.181 295.363,332.181 325.348,358.057 293.167,403.615 256.103,365.914 	"/>
	<ellipse fill="#FFD0AE" cx="181.29" cy="223.44" rx="13.799" ry="16.269"/>
	<ellipse fill="#FFD0AE" cx="331.053" cy="223.44" rx="13.799" ry="16.269"/>
	<path fill="#FFD0AE" d="M269.894,106.669h-27.445c-36.089,0-65.346,42.325-65.346,78.415c0,0,2.113,126.77,79.068,126.77
		c76.956,0,79.068-126.77,79.068-126.77C335.239,148.994,305.983,106.669,269.894,106.669z"/>
	<path fill="#919396" d="M337.893,209.313c11.648-17.49,25.132-125.358-40.549-122.576C234.949,45.25,134.419,86.5,174.45,209.313
		l7.457,4.695c0,0-0.971-12.233,4.394-24.235c5.364-12.001,19.833-22.498,23.893-47.969s76.342,21.036,87.15-10.658
		c7.914,35.468,30.094,42.405,33.205,58.626c3.112,16.222-0.113,24.235-0.113,24.235L337.893,209.313z"/>
	<path opacity="0.1" d="M330.549,189.773c-3.111-16.222-25.291-23.159-33.205-58.626c-10.809,31.694-83.091-14.813-87.15,10.658
		s-18.529,35.967-23.893,47.969c-5.365,12.001-4.394,24.235-4.394,24.235c0.277-4.685,1.29-11.291,4.394-18.235
		c5.364-12.001,19.833-22.498,23.893-47.969s76.342,21.036,87.15-10.658c7.914,35.468,30.094,42.405,33.205,58.626
		c0.741,3.86,1.115,7.239,1.267,10.172C332.043,202.007,331.865,196.633,330.549,189.773z"/>
	<path opacity="0.1" d="M219.038,407.608l37.065-38.708l37.064,38.708l35.168-48.722l-0.024-0.007
		c-1.094-0.15-2.168-0.31-3.202-0.484l-31.941,45.22l-37.064-37.701l-37.065,37.701l-31.941-45.22
		c-1.035,0.175-2.108,0.334-3.202,0.484l-0.025,0.007L219.038,407.608z"/>
	<path fill="#919396" d="M256.171,259.203c-15.783,0-28.578,6.422-28.578,14.344h57.156
		C284.749,265.625,271.954,259.203,256.171,259.203z"/>
	<rect x="317.348" y="450" fill="#FFC940" width="40.238" height="5.066"/>
	<g>
		<rect x="135.632" y="356.613" fill="#242F41" width="50.136" height="6.372"/>
		<rect x="325.686" y="356.613" fill="#242F41" width="50.136" height="6.372"/>
	</g>
	<g>
		<g>
			<rect x="140.954" y="356.613" fill="#FFC940" width="6.25" height="6.25"/>
			<rect x="150.954" y="356.613" fill="#FFC940" width="6.25" height="6.25"/>
		</g>
		<g>
			<rect x="354.249" y="356.613" fill="#FFC940" width="6.25" height="6.25"/>
			<rect x="364.249" y="356.613" fill="#FFC940" width="6.25" height="6.25"/>
		</g>
	</g>
	<path fill="#414042" d="M171.958,130.353v17.934c0,14.832,28.897,26.856,41.688,26.856h85.049
		c12.791,0,41.688-12.024,41.688-26.856v-17.934H171.958z"/>
	<path fill="#EFF0F0" d="M256.171,69.99c-79.272,0-93.477,35.54-93.477,56.524v15.762h186.954v-15.762
		C349.648,105.53,335.443,69.99,256.171,69.99z"/>
	<path fill="#414042" d="M256.376,109.985c-72.838,0-93.682,20.368-93.682,20.368v17.924h93.477h93.478v-17.924
		C349.648,130.353,329.215,109.985,256.376,109.985z"/>
	<g>
		<path fill="#FFC940" d="M256.376,120.498c-72.838,0-93.682,20.368-93.682,20.368v7.411c0,0,20.844-20.368,93.682-20.368
			s93.272,20.368,93.272,20.368v-7.411C349.648,140.865,329.215,120.498,256.376,120.498z"/>
	</g>
	<ellipse fill="#FFC940" cx="256.171" cy="98.196" rx="30.242" ry="22.206"/>
	<ellipse fill="#414042" cx="256.171" cy="98.196" rx="24.779" ry="18.194"/>
</g>
</svg>
