<?xml version="1.0" encoding="utf-8"?>
<!-- Generator: Adobe Illustrator 16.0.0, SVG Export Plug-In . SVG Version: 6.00 Build 0)  -->
<!DOCTYPE svg PUBLIC "-//W3C//DTD SVG 1.1//EN" "http://www.w3.org/Graphics/SVG/1.1/DTD/svg11.dtd">
<svg version="1.1" id="Chef_1_" xmlns="http://www.w3.org/2000/svg" xmlns:xlink="http://www.w3.org/1999/xlink" x="0px" y="0px"
	 width="512px" height="512px" viewBox="0 0 512 512" enable-background="new 0 0 512 512" xml:space="preserve">
<circle id="Background_3_" fill="#F8B913" cx="256" cy="256" r="256"/>
<path id="Shadow" opacity="0.1" d="M512,256c0-21.764-2.726-42.89-7.836-63.064L350.95,39.723h-95.022v472.276
	c0.024,0,0.048,0.001,0.072,0.001C397.386,512,512,397.386,512,256z"/>
<g id="Chef">
	<rect x="201.098" y="317" fill="#BC1E2D" width="108.98" height="33.906"/>
	<rect x="201.098" y="317" opacity="0.1" width="108.98" height="33.906"/>
	<path fill="#FFD0AE" d="M349.771,360.184c-74.442,0-57.834-36.507-62.884-73.06h-61.694c-5.05,36.553,11.558,73.06-62.884,73.06
		c-47.574,0-63.807,20.847-63.807,66.709v30.9C141.942,491.754,196.625,512,256.04,512s114.097-20.245,157.538-54.207v-30.9
		C413.577,381.03,397.344,360.184,349.771,360.184z"/>
	<path fill="#EFF0F0" d="M340.8,354.643L255.588,375l-84.309-20.357c-51.046,0-74.277,22.368-74.277,71.579v30.473
		C140.664,491.315,195.877,512,255.928,512c60.153,0,115.453-20.757,159.149-55.485v-30.293
		C415.077,377.011,391.847,354.643,340.8,354.643z"/>
	<path opacity="0.1" d="M288.157,308.324c-0.162-6.264-0.377-12.73-1.271-19.2h-61.694c-0.89,6.439-1.107,12.877-1.269,19.114
		c8.926,5.721,19.539,9.159,32.184,9.159C268.689,317.397,279.259,313.993,288.157,308.324z"/>
	<ellipse fill="#FFD0AE" cx="181.227" cy="223.44" rx="13.799" ry="16.269"/>
	<ellipse fill="#FFD0AE" cx="330.99" cy="223.44" rx="13.799" ry="16.269"/>
	<path fill="#FFD0AE" d="M269.831,106.669h-27.445c-36.089,0-65.345,42.325-65.345,78.415c0,0,2.112,126.77,79.068,126.77
		c76.955,0,79.068-126.77,79.068-126.77C335.177,148.994,305.92,106.669,269.831,106.669z"/>
	<path fill="#726658" d="M181.041,185.083c0-36.089,25.256-68.415,61.345-68.415h27.445c36.089,0,62.346,32.325,62.346,68.415
		c0,0-0.164,18.659-2.018,32.641l7.925-9c4.243-22.818,4.543-40.586,4.543-40.586c0-39.49-32.013-85.803-71.503-85.803h-30.031
		c-39.49,0-71.502,46.313-71.502,85.803c0,0,0.299,17.768,4.543,40.586l8.924,9C181.204,203.743,181.041,185.083,181.041,185.083z"
		/>
	<path fill="#EFF0F0" d="M366.3,70.876c0-21.709-17.599-39.309-39.309-39.309c-7.303,0-14.136,1.999-19.995,5.468
		C297.122,19.132,278.07,7,256.179,7c-21.892,0-40.943,12.132-50.817,30.036c-5.859-3.47-12.692-5.468-19.996-5.468
		c-21.709,0-39.309,17.599-39.309,39.309c0,16.152,9.745,30.022,23.673,36.068v72.374c0,9.766,38.704,17.682,86.448,17.682
		s86.448-7.917,86.448-17.682v-72.374C356.555,100.898,366.3,87.028,366.3,70.876z"/>
	<path fill="#726658" d="M256.108,254.713c-15.783,0-28.578,6.422-28.578,14.344h57.156
		C284.687,261.136,271.892,254.713,256.108,254.713z"/>
	<path fill="#726658" d="M211.108,202.014c-7.322,0-13.258,4.18-13.258,9.336h36.516
		C234.366,206.194,218.431,202.014,211.108,202.014z"/>
	<path fill="#726658" d="M301.108,202.014c-7.322,0-23.258,4.18-23.258,9.336h36.516
		C314.366,206.194,308.431,202.014,301.108,202.014z"/>
	<polygon fill="#BC1E2D" points="310.8,317 256.04,357 201.279,317 171.279,354.396 256.04,383.396 340.8,354.396 	"/>
	<rect x="242.01" y="357.318" fill="#BC1E2D" width="27.697" height="27.697"/>
	<polygon fill="#BC1E2D" points="245.472,385 231.139,427.667 253.836,437.453 253.836,385 	"/>
	<polygon opacity="0.1" points="245.472,385 231.139,427.667 253.836,437.453 253.836,385 	"/>
	<polygon fill="#BC1E2D" points="265.472,385 285.578,442.667 274.707,458.176 253.906,442.667 253.836,385 	"/>
	<g>
		<circle opacity="0.7" cx="191.04" cy="403.488" r="7.738"/>
		<circle opacity="0.7" cx="191.04" cy="463.488" r="7.738"/>
		<circle opacity="0.7" cx="321.04" cy="403.488" r="7.738"/>
		<circle opacity="0.7" cx="321.04" cy="463.488" r="7.738"/>
	</g>
</g>
</svg>
