<?xml version="1.0" encoding="utf-8"?>
<!-- Generator: Adobe Illustrator 16.0.0, SVG Export Plug-In . SVG Version: 6.00 Build 0)  -->
<!DOCTYPE svg PUBLIC "-//W3C//DTD SVG 1.1//EN" "http://www.w3.org/Graphics/SVG/1.1/DTD/svg11.dtd">
<svg version="1.1" id="Concierge_1_" xmlns="http://www.w3.org/2000/svg" xmlns:xlink="http://www.w3.org/1999/xlink" x="0px"
	 y="0px" width="512px" height="512px" viewBox="0 0 512 512" enable-background="new 0 0 512 512" xml:space="preserve">
<circle id="Background_7_" fill="#009244" cx="256" cy="256" r="256"/>
<path id="Shadow" opacity="0.1" d="M512,256c0-5.027-0.161-10.015-0.447-14.971L346.592,76.068H256V512
	C397.386,512,512,397.386,512,256z"/>
<g id="Concierge">
	<polygon fill="#CFD1D2" points="173.416,132.416 170.191,157.583 171.785,166.599 177.396,147.97 175.546,147.717 	"/>
	<path fill="#FFD0AE" d="M349.73,360.184c-74.441,0-57.833-36.507-62.884-73.06h-61.693c-5.05,36.553,11.558,73.06-62.884,73.06
		c-47.574,0-63.807,20.847-63.807,66.709v30.9C141.903,491.754,196.585,512,256,512c59.415,0,114.097-20.245,157.537-54.207v-30.9
		C413.537,381.03,397.305,360.184,349.73,360.184z"/>
	<path opacity="0.1" d="M288.117,308.324c-0.161-6.264-0.377-12.73-1.271-19.2h-61.693c-0.89,6.439-1.107,12.877-1.269,19.114
		c8.926,5.721,19.539,9.159,32.184,9.159C268.65,317.397,279.22,313.993,288.117,308.324z"/>
	<path fill="#62685D" d="M349.73,360.184c-20.24,0-37.776-7.193-44.617-8.344l0.152-17.124H256h-49.266l0.153,17.124
		c-6.841,1.15-24.378,8.344-44.618,8.344c-47.574,0-63.807,20.847-63.807,66.709v30.9C141.903,491.754,196.585,512,256,512
		c59.414,0,114.097-20.246,157.537-54.207v-30.9C413.537,381.03,397.305,360.184,349.73,360.184z"/>
	<ellipse fill="#FFD0AE" cx="181.188" cy="223.44" rx="13.799" ry="16.269"/>
	<ellipse fill="#FFD0AE" cx="330.95" cy="223.44" rx="13.799" ry="16.269"/>
	<path fill="#FFD0AE" d="M269.791,106.669h-27.445c-36.089,0-65.345,42.325-65.345,78.415c0,0,2.112,126.77,79.068,126.77
		s79.068-126.77,79.068-126.77C335.137,148.994,305.881,106.669,269.791,106.669z"/>
	<path fill="#D4D076" d="M270.974,95.935h-29.809c-39.198,0-70.974,46.753-70.974,86.619c0,0,0.192,11.523,2.432,27.946l8.634,3
		c-2.078-14.93,11.744-19.667,11.744-38.417s13.256-38.415,49.345-38.415h27.445c36.09,0,49.346,19.665,49.346,38.415
		s13.821,23.486,11.744,38.417l8.634-3c2.239-16.423,2.433-27.946,2.433-27.946C341.947,142.688,310.171,95.935,270.974,95.935z"/>
	<path opacity="0.1" d="M319.137,175.083c0-18.75-13.256-38.415-49.346-38.415h-27.445c-36.089,0-49.345,19.665-49.345,38.415
		c0,17.906-12.594,23.038-11.92,36.466c0.68-11.874,11.92-17.387,11.92-34.299c0-18.75,13.256-38.415,49.345-38.415h27.445
		c36.09,0,49.346,19.665,49.346,38.415c0,16.912,11.24,22.426,11.921,34.299C331.731,198.122,319.137,192.989,319.137,175.083z"/>
	<circle opacity="0.7" fill="#FFFFFF" cx="255.333" cy="382" r="5"/>
	<path opacity="0.1" d="M258.113,377.846c0.533,0.795,0.845,1.75,0.845,2.779c0,2.762-2.238,5-5,5c-1.029,0-1.985-0.313-2.78-0.846
		c0.897,1.339,2.422,2.221,4.155,2.221c2.761,0,5-2.238,5-5C260.333,380.268,259.451,378.742,258.113,377.846z"/>
	<circle opacity="0.7" fill="#FFFFFF" cx="255.333" cy="422" r="5"/>
	<path opacity="0.1" d="M258.113,417.846c0.533,0.795,0.845,1.75,0.845,2.779c0,2.762-2.238,5-5,5c-1.029,0-1.985-0.313-2.78-0.846
		c0.897,1.339,2.422,2.221,4.155,2.221c2.761,0,5-2.238,5-5C260.333,420.268,259.451,418.742,258.113,417.846z"/>
	<circle opacity="0.7" fill="#FFFFFF" cx="255.333" cy="462" r="5"/>
	<path opacity="0.1" d="M258.113,457.846c0.533,0.795,0.845,1.75,0.845,2.779c0,2.762-2.238,5-5,5c-1.029,0-1.985-0.313-2.78-0.846
		c0.897,1.339,2.422,2.221,4.155,2.221c2.761,0,5-2.238,5-5C260.333,460.268,259.451,458.742,258.113,457.846z"/>
	<circle opacity="0.7" fill="#FFFFFF" cx="255.333" cy="502" r="5"/>
	<path opacity="0.1" d="M258.113,497.846c0.533,0.795,0.845,1.75,0.845,2.779c0,2.762-2.238,5-5,5c-1.029,0-1.985-0.313-2.78-0.846
		c0.897,1.339,2.422,2.221,4.155,2.221c2.761,0,5-2.238,5-5C260.333,500.268,259.451,498.742,258.113,497.846z"/>
	<polygon fill="#CFD1D2" points="198.042,356.466 141.905,363.68 140.905,357.202 197.042,349.988 	"/>
	<polygon fill="#CFD1D2" points="311.572,356.466 367.708,363.68 368.708,357.202 312.572,349.988 	"/>
	<path fill="#62685D" d="M257.239,363.613v-28.897H256h-0.728v25.897h-21.387v150.443c1.634,0.141,3.273,0.26,4.916,0.369V363.613
		H257.239z"/>
	<path opacity="0.2" d="M257.239,363.613v-28.897H256h-0.728v25.897h-21.387v150.443c1.634,0.141,3.273,0.26,4.916,0.369V363.613
		H257.239z"/>
	<polygon fill="#58595B" points="346.592,76.068 165.546,76.068 175.546,147.717 256.069,158.717 336.592,147.717 	"/>
	<path opacity="0.1" d="M334.738,147.97l-78.669,10.747l-78.669-10.747c-0.291,0.709-0.575,1.42-0.849,2.134l79.519,10.863
		l79.518-10.863C335.313,149.39,335.028,148.679,334.738,147.97z"/>
	<path fill="#EFF0F0" d="M176.536,139.882c0.584,4.205-0.418,7.68-1.005,7.761s-3.536-3.261-4.121-7.466
		c-0.584-4.205,1.418-7.68,2.005-7.761C174.002,132.334,175.952,135.677,176.536,139.882z"/>
	<polygon fill="#CFD1D2" points="338.723,132.416 341.947,157.583 340.353,166.599 334.741,147.97 336.592,147.717 	"/>
	<path fill="#EFF0F0" d="M335.602,139.882c-0.584,4.205,0.418,7.68,1.005,7.761s3.537-3.261,4.121-7.466s-1.418-7.68-2.005-7.761
		S336.187,135.677,335.602,139.882z"/>
</g>
</svg>
