<?xml version="1.0" encoding="utf-8"?>
<!-- Generator: Adobe Illustrator 16.0.0, SVG Export Plug-In . SVG Version: 6.00 Build 0)  -->
<!DOCTYPE svg PUBLIC "-//W3C//DTD SVG 1.1//EN" "http://www.w3.org/Graphics/SVG/1.1/DTD/svg11.dtd">
<svg version="1.1" id="Film_Director_1_" xmlns="http://www.w3.org/2000/svg" xmlns:xlink="http://www.w3.org/1999/xlink" x="0px"
	 y="0px" width="512px" height="512px" viewBox="0 0 512 512" enable-background="new 0 0 512 512" xml:space="preserve">
<circle id="Background_11_" fill="#1B9BAA" cx="256" cy="256" r="256"/>
<path id="Shadow" opacity="0.1" d="M512,256c0-5.05-0.163-10.063-0.451-15.041L345.2,74.611H256V512
	C397.386,512,512,397.386,512,256z"/>
<g id="Film_Director">
	<path fill="#FFD0AE" d="M349.73,360.184c-74.441,0-57.833-36.507-62.884-73.06h-61.693c-5.05,36.553,11.558,73.06-62.884,73.06
		c-47.574,0-63.807,20.847-63.807,66.709v30.9C141.903,491.754,196.585,512,256,512c59.415,0,114.097-20.245,157.537-54.207v-30.9
		C413.537,381.03,397.305,360.184,349.73,360.184z"/>
	<path opacity="0.1" d="M288.117,308.324c-0.161-6.264-0.377-12.73-1.271-19.2h-61.693c-0.89,6.439-1.107,12.877-1.269,19.114
		c8.926,5.721,19.539,9.159,32.184,9.159C268.65,317.397,279.22,313.993,288.117,308.324z"/>
	<path fill="#E4E5E6" d="M349.73,360.184c-9.712,0-17.861-0.627-24.725-1.788H186.994c-6.863,1.161-15.012,1.788-24.724,1.788
		c-47.574,0-63.807,20.847-63.807,66.709v30.9C141.903,491.754,196.585,512,256,512c59.415,0,114.097-20.245,157.537-54.207v-30.9
		C413.537,381.03,397.305,360.184,349.73,360.184z"/>
	<path fill="#00753F" d="M349.73,360.184c-9.712,0-17.861-0.627-24.725-1.788l-28.664,17.519L255.817,449.5l-40.159-73.586
		l-28.664-17.519c-6.863,1.161-15.012,1.788-24.724,1.788c-47.574,0-63.807,20.847-63.807,66.709v30.9
		C141.903,491.754,196.585,512,256,512c59.415,0,114.097-20.245,157.537-54.207v-30.9
		C413.537,381.03,397.305,360.184,349.73,360.184z"/>
	<polygon fill="#008F4D" points="221.138,332.181 216.397,332.181 186.412,358.057 168.593,403.615 204.615,376.146 
		215.658,375.914 	"/>
	<polygon fill="#008F4D" points="290.861,332.181 295.604,332.181 325.588,358.057 343.407,403.615 307.385,376.146 
		296.342,375.914 	"/>
	<ellipse fill="#FFD0AE" cx="181.188" cy="223.44" rx="13.799" ry="16.269"/>
	<ellipse fill="#FFD0AE" cx="330.95" cy="223.44" rx="13.799" ry="16.269"/>
	<path fill="#FFD0AE" d="M269.791,106.669h-27.445c-36.089,0-65.345,42.325-65.345,78.415c0,0,2.112,126.77,79.068,126.77
		s79.068-126.77,79.068-126.77C335.137,148.994,305.881,106.669,269.791,106.669z"/>
	<path fill="#EFF0F0" d="M300.15,358.543c0,5.522-5.031,10-11.239,10h-65.823c-6.207,0-11.239-4.478-11.239-10v-24.479
		c0-5.523,5.032-10,11.239-10c0,0,18.689,8.117,32.912,8.117s32.911-8.117,32.911-8.117c6.208,0,11.239,4.477,11.239,10V358.543z"/>
	<path opacity="0.1" d="M256,332.181c-8.505,0-18.604-2.902-25.351-5.236c-4.945,6.24-12.298,25.188-16.11,38.08
		c2.061,2.15,5.124,3.519,8.549,3.519h65.823c3.274,0,6.212-1.253,8.266-3.24c-3.768-12.829-11.133-31.874-16.113-38.259
		C274.318,329.359,264.385,332.181,256,332.181z"/>
	<path fill="#EFF0F0" d="M276.783,327.667h-41.932c-5.522,0-20,40.729-20,48.247S246.567,479.5,255.817,479.5
		c9.25,0,40.966-96.067,40.966-103.586S282.306,327.667,276.783,327.667z"/>
	<path fill="#992310" d="M337.729,209.264c11.648-17.49,16.543-116.979-38.549-116.576
		c-36.241-43.737-156.908,3.597-124.894,116.576l7.457,4.695c0,0-0.409-20.461,2.394-29.235s21.469-78.104,108.361-55.14
		c17.107,42.033,32.687,21.366,37.889,60.14c2.195,16.371-0.114,24.235-0.114,24.235L337.729,209.264z"/>
	<path opacity="0.1" d="M330.385,189.725c-5.201-38.773-20.779-18.107-37.888-60.14c-86.892-22.965-105.559,46.366-108.361,55.14
		c-2.545,7.97-2.441,25.581-2.401,28.741c0.072-6.655,0.488-18.086,2.401-24.074c2.802-8.774,21.469-78.104,108.361-55.14
		c17.108,42.033,32.687,21.366,37.888,60.14c0.553,4.117,0.819,7.694,0.91,10.746C331.412,201.289,331.251,196.178,330.385,189.725z
		"/>
	<path fill="#C0B399" d="M288.936,57.182c-26.001,0-52.131,9.104-71.291,21.984c-33.2,5.875-68.187,20.819-68.187,41.529
		c0,11.426,7.622,19.463,20.018,24.727c-13.502,4.236-23.992,11.133-23.992,15.166c0,6.119,13.476,14.425,50.167,11.08
		c36.691-3.345,45.167-7.917,60.35-18.16h12.936c50.223,0,90.936-13.259,90.936-42.813C359.871,81.14,339.158,57.182,288.936,57.182
		z"/>
	<path opacity="0.1" d="M169.487,145.426c-1.105,0.347-2.194,0.708-3.255,1.087c13.322,6.096,32.679,8.739,54.234,8.739L256,153.507
		c0.391-0.599,0,0.563,0,0h-33.789C201.454,153.507,182.742,151.052,169.487,145.426z"/>
	<path opacity="0.1" d="M231.138,83.068c0,2.438-1.101,6.415-8.127,6.415c-7.027,0-8.128-3.977-8.128-6.415
		c0-2.438,3.639-4.415,8.128-4.415C227.5,78.653,231.138,80.63,231.138,83.068z"/>
	<path opacity="0.1" d="M223.011,87.394c-5.834,0-7.579-2.74-8.005-5.066c-0.075,0.241-0.123,0.488-0.123,0.741
		c0,2.438,1.101,6.415,8.128,6.415c7.026,0,8.127-3.977,8.127-6.415c0-0.253-0.048-0.5-0.123-0.741
		C230.589,84.654,228.845,87.394,223.011,87.394z"/>
</g>
</svg>
