<?xml version="1.0" encoding="utf-8"?>
<!-- Generator: Adobe Illustrator 16.0.0, SVG Export Plug-In . SVG Version: 6.00 Build 0)  -->
<!DOCTYPE svg PUBLIC "-//W3C//DTD SVG 1.1//EN" "http://www.w3.org/Graphics/SVG/1.1/DTD/svg11.dtd">
<svg version="1.1" id="Farmer_1_" xmlns="http://www.w3.org/2000/svg" xmlns:xlink="http://www.w3.org/1999/xlink" x="0px" y="0px"
	 width="512px" height="512px" viewBox="0 0 512 512" enable-background="new 0 0 512 512" xml:space="preserve">
<circle id="Background_7_" fill="#009244" cx="256" cy="256" r="256"/>
<path id="Shadow" opacity="0.1" d="M511.996,256.313L408.303,152.62h-19.079l-80.537-80.537H256V512
	C397.281,512,511.826,397.555,511.996,256.313z"/>
<g id="Farmer">
	<path fill="#FFCC99" d="M349.73,360.184c-74.441,0-57.833-36.507-62.884-73.06h-61.693c-5.05,36.553,11.558,73.06-62.884,73.06
		c-47.574,0-63.807,20.847-63.807,66.709v30.9C141.903,491.754,196.585,512,256,512c59.415,0,114.097-20.245,157.537-54.207v-30.9
		C413.537,381.03,397.305,360.184,349.73,360.184z"/>
	<ellipse fill="#FFCC99" cx="181.188" cy="223.44" rx="13.799" ry="16.269"/>
	<path opacity="0.1" d="M287.742,308.324c-0.162-6.264-0.377-12.73-1.271-19.2h-61.694c-0.89,6.439-1.107,12.877-1.269,19.114
		c8.926,5.721,19.539,9.159,32.184,9.159C268.274,317.397,278.844,313.993,287.742,308.324z"/>
	<ellipse fill="#FFCC99" cx="330.95" cy="223.44" rx="13.799" ry="16.269"/>
	<path fill="#FFD0AE" d="M269.791,106.669h-27.445c-36.089,0-65.345,42.325-65.345,78.415c0,0,2.112,126.77,79.068,126.77
		s79.068-126.77,79.068-126.77C335.137,148.994,305.881,106.669,269.791,106.669z"/>
	<path fill="#FFCC99" d="M269.791,106.669h-27.445c-36.089,0-65.345,42.325-65.345,78.415c0,0,2.112,126.77,79.068,126.77
		s79.068-126.77,79.068-126.77C335.137,148.994,305.881,106.669,269.791,106.669z"/>
	<path fill="#F48337" d="M270.974,95.935h-29.809c-39.198,0-70.974,46.753-70.974,86.619c0,0,0.192,11.523,2.432,27.946l8.634,3
		c-2.078-14.93,8.744-19.667,8.744-38.417s16.256-38.415,52.345-38.415h27.445c36.09,0,52.346,19.665,52.346,38.415
		s10.821,23.486,8.744,38.417l8.634-3c2.239-16.423,2.433-27.946,2.433-27.946C341.947,142.688,310.171,95.935,270.974,95.935z"/>
	<path fill="#F9452D" d="M349.73,360.184c-15.942,0-27.698-1.679-36.396-4.669c-4.808,27.318-28.639,48.08-57.335,48.08
		s-52.528-20.762-57.334-48.08c-8.698,2.99-20.454,4.669-36.396,4.669c-47.574,0-63.807,20.847-63.807,66.709v30.9
		C141.903,491.754,196.585,512,256,512c59.415,0,114.097-20.245,157.537-54.207v-30.9
		C413.537,381.03,397.305,360.184,349.73,360.184z"/>
	<path fill="#0B5F8E" d="M329.833,358.515v83.152H182.167v-83.152H150.5v130.803C182.67,503.887,218.387,512,256,512
		c37.613,0,73.33-8.113,105.5-22.683V358.515H329.833z"/>
	<path opacity="0.1" d="M185.374,441.667v-83.008c-1.037,0.158-2.112,0.301-3.207,0.435v82.573H185.374z"/>
	<path opacity="0.1" d="M329.833,359.094c-1.094-0.134-2.17-0.276-3.207-0.435v83.008h3.207V359.094z"/>
	<path fill="#FDCC03" d="M344.719,124.407c-10.476-33.981-38.985-65.071-72.52-65.071h-32.261c-33.534,0-62.043,31.09-72.52,65.071
		c-38.5,6.766-63.584,17.82-63.584,30.311c0,20.591,68.157,37.283,152.234,37.283s152.234-16.692,152.234-37.283
		C408.303,142.227,383.219,131.172,344.719,124.407z"/>
	<path fill="#B37112" d="M343.773,121.5c-0.451-1.326-0.925-2.647-1.43-3.961c-1.593,1.351-3.456,2.676-5.551,3.961
		c-13.665,8.383-37.478,15.004-64.594,15.004h-32.261c-27.117,0-50.929-6.621-64.594-15.004c-2.095-1.285-3.958-2.61-5.551-3.961
		c-0.505,1.313-0.979,2.635-1.43,3.961c-0.831,2.441-1.553,4.903-2.195,7.372c9.266,11.613,38.774,22.636,73.769,22.636h32.261
		c34.995,0,64.503-11.023,73.77-22.636C345.327,126.403,344.604,123.941,343.773,121.5z"/>
	<path fill="#F48337" d="M255.925,256.974c-15.783,0-28.578,6.422-28.578,14.344h57.157
		C284.504,263.396,271.709,256.974,255.925,256.974z"/>
	<path fill="#F48337" d="M210.926,203.275c-7.322,0-13.258,4.18-13.258,9.336h36.516
		C234.184,207.455,218.248,203.275,210.926,203.275z"/>
	<path fill="#F48337" d="M300.926,203.275c-7.322,0-23.258,4.18-23.258,9.336h36.516
		C314.184,207.455,308.248,203.275,300.926,203.275z"/>
	<rect x="182.167" y="468.667" opacity="0.1" fill="#FFFFFF" width="147.667" height="4.333"/>
</g>
</svg>
