<?xml version="1.0" encoding="utf-8"?>
<!-- Generator: Adobe Illustrator 16.0.0, SVG Export Plug-In . SVG Version: 6.00 Build 0)  -->
<!DOCTYPE svg PUBLIC "-//W3C//DTD SVG 1.1//EN" "http://www.w3.org/Graphics/SVG/1.1/DTD/svg11.dtd">
<svg version="1.1" id="Fire_Fighter_1_" xmlns="http://www.w3.org/2000/svg" xmlns:xlink="http://www.w3.org/1999/xlink" x="0px"
	 y="0px" width="512px" height="512px" viewBox="0 0 512 512" enable-background="new 0 0 512 512" xml:space="preserve">
<circle id="Background_7_" fill="#009244" cx="256" cy="256" r="256"/>
<path id="Shadow" opacity="0.1" d="M512,256c0-6.312-0.238-12.568-0.688-18.766L384.374,110.296v26.963l-79.313-79.313H256V512
	C397.386,512,512,397.386,512,256z"/>
<g id="Fire_Fighter">
	<path fill="#C14127" d="M386.537,110.296c0-10.964-63.875,12.437-130.333,12.437c-66.458,0-130.333-23.401-130.333-12.437
		c0,10.791-33.135,89.272,94.089,92.073l72.171,0.007C419.677,199.715,386.537,121.095,386.537,110.296z"/>
	<path fill="#FFD0AE" d="M349.788,360.184c-74.441,0-57.834-36.507-62.884-73.06h-61.693c-5.05,36.553,11.558,73.06-62.884,73.06
		c-47.574,0-63.807,20.847-63.807,66.709v30.9C141.96,491.754,196.643,512,256.058,512c59.414,0,114.097-20.245,157.537-54.207
		v-30.9C413.595,381.03,397.362,360.184,349.788,360.184z"/>
	<path opacity="0.1" d="M288.253,308.324c-0.162-6.264-0.377-12.73-1.271-19.2h-61.693c-0.89,6.439-1.107,12.877-1.268,19.114
		c8.926,5.721,19.539,9.159,32.184,9.159C268.785,317.397,279.354,313.993,288.253,308.324z"/>
	<ellipse fill="#FFD0AE" cx="181.323" cy="223.44" rx="13.799" ry="16.269"/>
	<ellipse fill="#FFD0AE" cx="331.085" cy="223.44" rx="13.799" ry="16.269"/>
	<path fill="#FFD0AE" d="M269.927,106.669h-27.445c-36.089,0-65.346,42.325-65.346,78.415c0,0,2.113,126.77,79.068,126.77
		c76.955,0,79.068-126.77,79.068-126.77C335.272,148.994,306.016,106.669,269.927,106.669z"/>
	<path fill="#F6BC15" d="M174.972,209.453c-11.648-17.49-22.337-111.703,40.549-122.576C272.635,47,377.888,103.44,338.415,209.453
		l-7.457,4.695c6.677-28.814-10.873-44.235-23.394-44.235c-60.93,0-75.088-61.176-92.043-38.626
		c-15.387,20.463-28.387,21.463-33.206,50.626c-2.693,16.296,0.114,32.235,0.114,32.235L174.972,209.453z"/>
	<path opacity="0.1" d="M307.564,169.913c-60.93,0-75.088-61.176-92.043-38.626c-15.387,20.463-28.387,21.463-33.206,50.626
		c-1.013,6.132-1.248,12.212-1.146,17.412c0.08-4.115,0.403-8.582,1.146-13.079c4.819-29.163,17.819-30.163,33.206-50.626
		c16.956-22.55,31.113,38.626,92.043,38.626c10.261,0,23.889,10.362,24.803,29.959C333.421,181.803,318.558,169.913,307.564,169.913
		z"/>
	<path fill="#C14127" d="M349.673,360.184c-9.712,0-17.861-0.627-24.725-1.788l-58.813,7.519h-20l-59.199-7.519
		c-6.863,1.161-15.012,1.788-24.724,1.788c-47.574,0-63.807,20.847-63.807,66.709v30.9C141.846,491.754,196.528,512,255.942,512
		c59.415,0,114.097-20.245,157.538-54.207v-30.9C413.48,381.03,397.247,360.184,349.673,360.184z"/>
	<polygon opacity="0.1" points="256.09,365.898 255.795,365.898 255.942,365.914 	"/>
	<path opacity="0.2" d="M256.026,365.898l-0.084,0.016l-0.084-0.016H240.25v144.644c5.155,0.964,10.391,1.458,15.692,1.458
		c5.302,0,10.537-0.494,15.692-1.458V365.898H256.026z"/>
	<polygon opacity="0.1" points="221.616,336.847 216.874,336.847 186.936,358.396 209.07,408.282 246.135,365.914 	"/>
	<polygon opacity="0.1" points="290.758,336.847 295.396,336.847 324.948,358.396 303.199,408.282 266.135,365.914 	"/>
	<polygon fill="#332C2B" points="221.616,332.181 216.874,332.181 186.889,358.057 209.07,403.615 246.135,365.914 	"/>
	<polygon fill="#332C2B" points="290.758,332.181 295.396,332.181 325.381,358.057 303.199,403.615 266.135,365.914 	"/>
	<path fill="#C14127" d="M338.671,112.295c-5.819-32.801-34.033-66.293-67.964-66.293H241.7c-33.93,0-62.144,33.492-67.963,66.293
		c-23.309,2.238-47.867-4.606-47.867,3c0,36.5,85.411,47.5,130.333,47.5s130.333-11,130.333-47.5
		C386.537,107.689,361.979,114.534,338.671,112.295z"/>
	<path opacity="0.1" d="M270.707,135.096c9.962,0,19.422-0.745,27.977-2.003c-0.855-31.701-3.899-72.934-25.692-87.037
		c-5.563-0.824-11.481-1.272-17.787-1.272c-6.306,0-12.224,0.448-17.788,1.272c-21.725,14.059-24.817,55.077-25.684,86.738
		c9.064,1.441,19.229,2.301,29.967,2.301H270.707z"/>
	<path fill="#C14127" d="M255.204,42.104c-36.234,0-38.473,56.268-39.225,95.306c7.952,1.064,16.627,1.687,25.721,1.687h29.007
		c8.337,0,16.328-0.518,23.727-1.424C293.687,98.624,291.52,42.104,255.204,42.104z"/>
	<path opacity="0.1" d="M270.707,135.096H241.7c-38.143,0-69.064-10.847-69.064-20.096v4c0,9.249,30.921,20.096,69.064,20.096
		h29.007c38.144,0,69.065-10.847,69.065-20.096v-4C339.772,124.249,308.851,135.096,270.707,135.096z"/>
	<circle fill="#F8B913" cx="255.207" cy="102" r="18.667"/>
	<rect x="228.667" y="415.573" fill="#332C2B" width="54.952" height="27.73"/>
	<path fill="#F8B913" d="M130.434,462.142v17.011c7.679,4.329,15.604,8.272,23.749,11.806h203.519
		c8.287-3.595,16.346-7.612,24.149-12.03v-16.786H130.434z"/>
	<path opacity="0.5" fill="#FFFFFF" d="M130.434,468v11.152c3.67,2.069,7.393,4.057,11.173,5.947h228.671
		c3.917-1.96,7.773-4.021,11.573-6.172V468H130.434z"/>
</g>
</svg>
