<?xml version="1.0" encoding="utf-8"?>
<!-- Generator: Adobe Illustrator 16.0.0, SVG Export Plug-In . SVG Version: 6.00 Build 0)  -->
<!DOCTYPE svg PUBLIC "-//W3C//DTD SVG 1.1//EN" "http://www.w3.org/Graphics/SVG/1.1/DTD/svg11.dtd">
<svg version="1.1" id="Hairstylist_1_" xmlns="http://www.w3.org/2000/svg" xmlns:xlink="http://www.w3.org/1999/xlink" x="0px"
	 y="0px" width="512px" height="512px" viewBox="0 0 512 512" enable-background="new 0 0 512 512" xml:space="preserve">
<circle id="Background_5_" fill="#9ACCB0" cx="256" cy="256" r="256"/>
<path id="Shadow" opacity="0.1" d="M512,256c0-3.341-0.085-6.662-0.212-9.972L372.697,106.669l-11.452,8.717l-24.413-24.414H256V512
	C397.386,512,512,397.386,512,256z"/>
<g id="Hairstylist">
	<path fill="#D9956E" d="M398.301,206.402c-6.666-21.902-13.333-25.099-15.5-46.5c-2.166-21.402-26-42.5-26-42.5
		c11.74,1.284,15.1-7.13,16.083-11.494c-2.229,4.78-12.727,3.754-21.583-1.506c-10.166-6.038-5.579-6.392-14.469-13.43
		c-11.715-11.861-29.986-22.202-54.515-12.07c0,0-14.5-15-44.5-14c-30,1-56,37-73.5,40.5s-20.5-1.5-20-9c0,0-5,16.5,12.5,16
		c0,0-14.383,12.189-19,24.5c-4.616,12.311-5.476,27.379-16,46c-10.523,18.621-12.051,41.134,0.077,56.866
		c12.127,15.732,8.061,21.558,2.423,33.133c-5.637,11.576-5.683,67,79,67c124.695,0,141.617,3.194,167.126-19.013
		c25.509-22.207,25.024-36.085,22.857-50.987C386.135,227.5,404.968,228.303,398.301,206.402z"/>
	<path fill="#FFD0AE" d="M349.73,360.184c-74.441,0-57.833-36.507-62.884-73.06h-61.693c-5.05,36.553,11.558,73.06-62.884,73.06
		c-47.574,0-63.807,20.847-63.807,66.709v30.9C141.903,491.754,196.585,512,256,512c59.415,0,114.097-20.245,157.537-54.207v-30.9
		C413.537,381.03,397.305,360.184,349.73,360.184z"/>
	<path opacity="0.1" d="M288.117,308.324c-0.161-6.264-0.377-12.73-1.271-19.2h-61.693c-0.89,6.439-1.107,12.877-1.269,19.114
		c8.926,5.721,19.539,9.159,32.184,9.159C268.65,317.397,279.22,313.993,288.117,308.324z"/>
	<ellipse fill="#FFD0AE" cx="181.188" cy="223.44" rx="13.799" ry="16.269"/>
	<ellipse fill="#FFD0AE" cx="330.95" cy="223.44" rx="13.799" ry="16.269"/>
	<path fill="#FFD0AE" d="M269.791,106.669h-27.445c-36.089,0-65.345,42.325-65.345,78.415c0,0,2.112,126.77,79.068,126.77
		s79.068-126.77,79.068-126.77C335.137,148.994,305.881,106.669,269.791,106.669z"/>
	<path fill="#D9956E" d="M241.047,103.669h30.052c39.517,0,71.552,44.821,71.552,83.039c0,0-0.165,9.589-2.016,23.642
		c-25.157,11.745-23.519-77.208-49.321-70.854c-20.187-14.826-0.148,70.603-119.835,70.603c-2.731-7.064-1.983-23.39-1.983-23.39
		C169.496,148.49,201.53,103.669,241.047,103.669z"/>
	<path opacity="0.1" d="M291.313,139.495c-20.081-14.748-0.38,69.695-117.985,70.582c-1.333,1.092,0.934-1.564,0,0
		c122.005-0.147,98.153-81.395,118.772-66.582c10.609-2.556,16.68,10.309,21.82,25.835
		C308.605,152.096,302.572,136.723,291.313,139.495z"/>
	<path fill="#FCB99F" d="M366,361.154c-16.073,35.261-59.25,60.513-110,60.513c-50.75,0-93.926-25.252-110-60.513
		c-35.075,4.583-47.537,25.56-47.537,65.738v30.9C141.903,491.754,196.585,512,256,512c59.415,0,114.097-20.245,157.537-54.207
		v-30.9C413.537,386.714,401.076,365.737,366,361.154z"/>
	<path fill="#594A42" d="M324.792,356v97.5H187.208V356h-24.5v138.463C191.616,505.78,223.081,512,256,512
		s64.384-6.22,93.292-17.537V356H324.792z"/>
	<path opacity="0.1" d="M324.792,453.5v-95.142c-0.753-0.13-1.491-0.265-2.213-0.407v91.455H189.42v-91.455
		c-0.721,0.143-1.459,0.277-2.212,0.407V453.5H324.792z"/>
	<rect x="200.542" y="483.5" opacity="0.2" width="110.941" height="2.5"/>
</g>
</svg>
