<?xml version="1.0" encoding="utf-8"?>
<!-- Generator: Adobe Illustrator 16.0.0, SVG Export Plug-In . SVG Version: 6.00 Build 0)  -->
<!DOCTYPE svg PUBLIC "-//W3C//DTD SVG 1.1//EN" "http://www.w3.org/Graphics/SVG/1.1/DTD/svg11.dtd">
<svg version="1.1" id="Maid_1_" xmlns="http://www.w3.org/2000/svg" xmlns:xlink="http://www.w3.org/1999/xlink" x="0px" y="0px"
	 width="512px" height="512px" viewBox="0 0 512 512" enable-background="new 0 0 512 512" xml:space="preserve">
<circle id="Background_5_" fill="#9ACCB0" cx="255.807" cy="256" r="256"/>
<path id="Shadow" opacity="0.1" d="M511.215,273.269L334.209,96.262h-66.027v415.436
	C398.082,505.514,502.604,402.519,511.215,273.269z"/>
<g id="Maid">
	<path fill="#D17D49" d="M379.333,259.308c0-52.501-3.359-189.58-116.192-189.58c-15.003,0-44.333,0-56.333,12.926
		c-72.5,0.847-74.389,131.095-74.389,176.654c0,52.546,9.026,73.96,123.457,73.96C370.308,333.268,379.333,311.81,379.333,259.308z"
		/>
	<path fill="#FFD0AE" d="M349.538,360.184c-74.442,0-57.834-36.507-62.884-73.06H224.96c-5.05,36.553,11.558,73.06-62.884,73.06
		c-47.574,0-63.807,20.847-63.807,66.709v30.9C141.71,491.754,196.393,512,255.808,512c59.414,0,114.097-20.245,157.537-54.207
		v-30.9C413.345,381.03,397.111,360.184,349.538,360.184z"/>
	<path opacity="0.1" d="M287.925,308.324c-0.162-6.264-0.377-12.73-1.271-19.2H224.96c-0.89,6.439-1.107,12.877-1.269,19.114
		c8.926,5.721,19.539,9.159,32.184,9.159C268.457,317.397,279.026,313.993,287.925,308.324z"/>
	<ellipse fill="#FFD0AE" cx="180.995" cy="223.44" rx="13.799" ry="16.269"/>
	<ellipse fill="#FFD0AE" cx="330.758" cy="223.44" rx="13.799" ry="16.269"/>
	<path fill="#FFD0AE" d="M269.599,106.669h-27.445c-36.089,0-65.346,42.325-65.346,78.415c0,0,2.113,126.77,79.068,126.77
		s79.068-126.77,79.068-126.77C334.944,148.994,305.688,106.669,269.599,106.669z"/>
	<path fill="#D17D49" d="M269.599,105.286h-27.445c-33.213,0-81.242,44.935-67.348,103.617c0,0,17.001-1.731,32.001-64.771
		C280.141,162,327.679,181.182,331.892,224.44C357.158,156.002,305.688,105.286,269.599,105.286z"/>
	<path opacity="0.1" d="M206.808,144.131c-15,63.04-32.001,64.771-32.001,64.771s18.001,3.405,33.001-59.635
		c68.537,16.7,114.538,34.55,123.702,72.128C325.393,180.274,278.395,161.575,206.808,144.131z"/>
	<path fill="#231F20" d="M349.538,360.184c-19.531,0-32.787-2.516-41.819-6.884c-12.02,15.434-30.765,25.373-51.843,25.373
		c-21.099,0-39.861-9.959-51.88-25.42c-9.034,4.397-22.317,6.931-41.919,6.931c-47.574,0-63.807,20.847-63.807,66.709v30.9
		C141.71,491.754,196.393,512,255.808,512c59.414,0,114.097-20.245,157.537-54.207v-30.9
		C413.345,381.03,397.111,360.184,349.538,360.184z"/>
	<path fill="#EFF0F0" d="M203.996,353.253l-46.55,7.004c12.92,35.849,37.003,62.518,59.925,62.076
		c34.667-0.666,38.504-43.66,38.504-43.66C234.777,378.673,216.015,368.714,203.996,353.253z"/>
	<path fill="#EFF0F0" d="M307.756,353.253l46.55,7.004c-12.919,35.849-37.003,62.518-59.925,62.076
		c-34.667-0.666-38.505-43.66-38.505-43.66C276.976,378.673,295.737,368.714,307.756,353.253z"/>
	<path fill="#EFF0F0" d="M362.201,360.748L334.944,465H176.808l-27.261-104.266c-3.808,0.357-7.361,0.896-10.685,1.609
		l15.059,128.56C185.145,504.467,219.594,512,255.808,512c36.27,0,70.77-7.557,102.031-21.16l15.048-128.47
		C369.565,361.651,366.009,361.11,362.201,360.748z"/>
	
		<rect x="310.784" y="154.568" transform="matrix(0.7071 0.7072 -0.7072 0.7071 211.9904 -171.7402)" fill="#844F2E" width="5" height="30.863"/>
	
		<rect x="318.936" y="160.721" transform="matrix(0.7071 0.7072 -0.7072 0.7071 218.7291 -175.7029)" fill="#844F2E" width="5" height="30.863"/>
</g>
</svg>
