<?xml version="1.0" encoding="utf-8"?>
<!-- Generator: Adobe Illustrator 16.0.0, SVG Export Plug-In . SVG Version: 6.00 Build 0)  -->
<!DOCTYPE svg PUBLIC "-//W3C//DTD SVG 1.1//EN" "http://www.w3.org/Graphics/SVG/1.1/DTD/svg11.dtd">
<svg version="1.1" id="Nurse_1_" xmlns="http://www.w3.org/2000/svg" xmlns:xlink="http://www.w3.org/1999/xlink" x="0px" y="0px"
	 width="512px" height="512px" viewBox="0 0 512 512" enable-background="new 0 0 512 512" xml:space="preserve">
<circle id="Background_11_" fill="#1B9BAA" cx="256" cy="256" r="256"/>
<path id="Shadow" opacity="0.1" d="M506.139,310.626L256.295,60.782v451.214C378.8,511.857,481.131,425.67,506.139,310.626z"/>
<g id="Nurse">
	<circle fill="#3A2E1E" cx="256.069" cy="118.086" r="56.5"/>
	<path fill="#3A2E1E" d="M272.289,97.313h-32.44c-42.657,0-77.237,44.574-77.237,82.58c0,0-8.119,123.96,93.457,123.96
		c101.576,0,93.458-123.96,93.458-123.96C349.526,141.887,314.945,97.313,272.289,97.313z"/>
	<path fill="#FFD0AE" d="M349.73,360.184c-74.441,0-57.833-36.507-62.884-73.06h-61.693c-5.05,36.553,11.558,73.06-62.884,73.06
		c-47.574,0-63.807,20.847-63.807,66.709v30.9C141.903,491.754,196.585,512,256,512c59.415,0,114.097-20.245,157.537-54.207v-30.9
		C413.537,381.03,397.305,360.184,349.73,360.184z"/>
	<path opacity="0.1" d="M288.117,308.324c-0.161-6.264-0.377-12.73-1.271-19.2h-61.693c-0.89,6.439-1.107,12.877-1.269,19.114
		c8.926,5.721,19.539,9.159,32.184,9.159C268.65,317.397,279.22,313.993,288.117,308.324z"/>
	<ellipse fill="#FFD0AE" cx="181.188" cy="223.44" rx="13.799" ry="16.269"/>
	<ellipse fill="#FFD0AE" cx="330.95" cy="223.44" rx="13.799" ry="16.269"/>
	<path fill="#FFD0AE" d="M269.791,106.669h-27.445c-36.089,0-65.345,42.325-65.345,78.415c0,0,2.112,126.77,79.068,126.77
		s79.068-126.77,79.068-126.77C335.137,148.994,305.881,106.669,269.791,106.669z"/>
	
		<rect x="310.976" y="154.568" transform="matrix(0.7071 0.7072 -0.7072 0.7071 212.0468 -171.8762)" fill="#844F2E" width="5" height="30.863"/>
	
		<rect x="319.129" y="160.721" transform="matrix(0.7071 0.7072 -0.7072 0.7071 218.7854 -175.839)" fill="#844F2E" width="5" height="30.863"/>
	<path fill="#3A2E1E" d="M269.791,105.872h-27.445c-36.089,0-89.674,53.056-62.293,119.155c3.714-31.596,28.476-6.102,36.947-50.309
		c14.035,57.926,110.871,7.051,115.085,50.309C357.351,156.589,305.881,105.872,269.791,105.872z"/>
	<path fill="#FFFFFF" d="M349.73,360.184c-15.528,0-26.259-1.624-33.813-4.27h-49.846l-10.264,10l-10.233-10h-49.492
		c-7.554,2.646-18.285,4.27-33.813,4.27c-47.574,0-63.807,20.847-63.807,66.709v30.9C141.903,491.754,196.585,512,256,512
		c59.415,0,114.097-20.245,157.537-54.207v-30.9C413.537,381.03,397.305,360.184,349.73,360.184z"/>
	<path fill="#E5E5E5" d="M324.835,371.678c-2.325-2.378-5.565-3.91-9.142-3.985l-85.823-1.791l-0.125,5.999l85.824,1.791
		c1.922,0.04,3.682,0.861,4.98,2.185c1.295,1.326,2.08,3.103,2.08,5.024v122.327c2.01-0.541,4.01-1.104,6-1.692V380.9
		C328.628,377.323,327.164,374.053,324.835,371.678z"/>
	<polygon fill="#FFFFFF" points="221.288,332.181 216.546,332.181 186.562,358.057 218.743,393.615 255.808,365.914 	"/>
	<polygon fill="#FFFFFF" points="290.431,332.181 295.068,332.181 325.053,358.057 292.872,393.615 255.808,365.914 	"/>
	<path opacity="0.1" d="M218.743,397.608l37.065-28.708l37.064,28.708l35.168-38.722l-0.024-0.007
		c-1.094-0.15-2.168-0.31-3.202-0.484l-31.941,35.22l-37.064-27.701l-37.065,27.701l-31.941-35.22
		c-1.035,0.175-2.108,0.334-3.202,0.484l-0.025,0.007L218.743,397.608z"/>
	<circle opacity="0.2" cx="314.36" cy="382.581" r="4.689"/>
	<circle opacity="0.2" cx="255.807" cy="382.004" r="4.689"/>
	<path fill="#FFFFFF" d="M333.52,156.177l-19.212-55.843c0,0-17.308-10-57.974-10c-40.667,0-59.333,10-59.333,10l-19.323,56.516
		c14.479-3.83,39.059-18.003,79.857-18.003C298.333,138.846,318.853,152.339,333.52,156.177z"/>
	<path opacity="0.1" d="M217,174.586c-8.471,44.207-33.233,18.713-36.947,50.309l0.909,2.95
		c3.669-31.215,28.134-6.029,36.503-49.704c13.866,57.229,109.538,6.966,113.701,49.704l0.919-2.95
		C327.871,181.637,231.035,232.512,217,174.586z"/>
</g>
</svg>
