<?xml version="1.0" encoding="utf-8"?>
<!-- Generator: Adobe Illustrator 16.0.0, SVG Export Plug-In . SVG Version: 6.00 Build 0)  -->
<!DOCTYPE svg PUBLIC "-//W3C//DTD SVG 1.1//EN" "http://www.w3.org/Graphics/SVG/1.1/DTD/svg11.dtd">
<svg version="1.1" id="Police_1_" xmlns="http://www.w3.org/2000/svg" xmlns:xlink="http://www.w3.org/1999/xlink" x="0px" y="0px"
	 width="512px" height="512px" viewBox="0 0 512 512" enable-background="new 0 0 512 512" xml:space="preserve">
<circle id="Background_8_" fill="#1B9BAA" cx="256" cy="256" r="256"/>
<path id="Shadow" opacity="0.1" d="M512,256c0-5.006-0.159-9.974-0.443-14.909L361.575,91.11H255.942v420.889
	c0.02,0,0.039,0.001,0.058,0.001C397.386,512,512,397.386,512,256z"/>
<g id="Police">
	<path fill="#FFD0AE" d="M349.788,360.184c-74.441,0-57.834-36.507-62.884-73.06h-61.693c-5.05,36.553,11.558,73.06-62.884,73.06
		c-47.574,0-63.807,20.847-63.807,66.709v30.9C141.96,491.754,196.643,512,256.058,512c59.414,0,114.097-20.245,157.537-54.207
		v-30.9C413.595,381.03,397.362,360.184,349.788,360.184z"/>
	<path opacity="0.1" d="M288.253,308.324c-0.162-6.264-0.377-12.73-1.271-19.2h-61.693c-0.89,6.439-1.107,12.877-1.268,19.114
		c8.926,5.721,19.539,9.159,32.184,9.159C268.785,317.397,279.354,313.993,288.253,308.324z"/>
	<ellipse fill="#FFD0AE" cx="181.323" cy="223.44" rx="13.799" ry="16.269"/>
	<ellipse fill="#FFD0AE" cx="331.085" cy="223.44" rx="13.799" ry="16.269"/>
	<path fill="#FFD0AE" d="M269.927,106.669h-27.445c-36.089,0-65.346,42.325-65.346,78.415c0,0,2.113,126.77,79.068,126.77
		c76.955,0,79.068-126.77,79.068-126.77C335.272,148.994,306.016,106.669,269.927,106.669z"/>
	<path fill="#231F20" d="M174.972,209.453c-11.648-17.49-25.132-125.358,40.549-122.576
		c57.978-49.658,162.367,16.564,122.894,122.576l-7.457,4.695c7.177-20.148-3.637-68.778-12.394-64.235
		C272.135,174,256.135,129,215.521,131.287c-25.903,10.825-29.094,34.405-32.206,50.626c-3.112,16.222-0.886,32.235-0.886,32.235
		L174.972,209.453z"/>
	<path opacity="0.1" d="M318.564,149.913C272.135,174,256.135,129,215.521,131.287c-25.903,10.825-29.094,34.405-32.206,50.626
		c-1.739,9.066-1.811,18.065-1.536,24.242c0.194-4.235,0.646-8.855,1.536-13.494c3.112-16.221,6.303-39.801,32.206-50.626
		c40.614-2.287,56.614,42.713,103.043,18.626c6.202-3.217,13.435,20.237,14.577,41.355
		C334.57,179.207,325.855,146.131,318.564,149.913z"/>
	<path fill="#E4E5E6" d="M349.673,360.184c-9.712,0-17.861-0.627-24.725-1.788l-69.006,7.519l-69.006-7.519
		c-6.863,1.161-15.012,1.788-24.724,1.788c-47.574,0-63.807,20.847-63.807,66.709v30.9C141.846,491.754,196.528,512,255.942,512
		c59.415,0,114.097-20.245,157.538-54.207v-30.9C413.48,381.03,397.247,360.184,349.673,360.184z"/>
	<path fill="#242F41" d="M349.673,360.184c-9.712,0-17.861-0.627-24.725-1.788l-69.006,7.519l-69.006-7.519
		c-6.863,1.161-15.012,1.788-24.724,1.788c-47.574,0-63.807,20.847-63.807,66.709v30.9C141.846,491.754,196.528,512,255.942,512
		c59.415,0,114.097-20.245,157.538-54.207v-30.9C413.48,381.03,397.247,360.184,349.673,360.184z"/>
	<polygon fill="#242F41" points="221.616,332.181 216.874,332.181 186.889,358.057 219.07,403.615 256.135,365.914 	"/>
	<polygon fill="#242F41" points="290.758,332.181 295.396,332.181 325.381,358.057 293.199,403.615 256.135,365.914 	"/>
	<path opacity="0.1" d="M219.07,407.608l37.065-38.708l37.064,38.708l35.169-48.722l-0.025-0.007
		c-1.094-0.15-2.167-0.31-3.201-0.484l-31.942,45.22l-37.064-37.701l-37.065,37.701l-31.941-45.22
		c-1.034,0.175-2.108,0.334-3.202,0.484l-0.025,0.007L219.07,407.608z"/>
	<path fill="#242F41" d="M256.463,43.774L151.35,91.11l12.137,36.412c0,34.639,41.626,55.438,92.976,55.438
		c51.349,0,92.976-20.798,92.976-55.438l12.137-36.412L256.463,43.774z"/>
	<path fill="#EDC36A" d="M275.699,95.753c-1.501,0-2.732,1.104-2.955,2.542l-10.337-1.604l-4.296-9.298l0,0l-0.393-0.851
		c1.027-0.476,1.745-1.51,1.745-2.717c0-1.658-1.344-3.001-3.001-3.001s-3.001,1.343-3.001,3.001c0,1.208,0.717,2.241,1.745,2.717
		l-0.393,0.851l0,0l-4.296,9.298l-10.337,1.604c-0.222-1.438-1.454-2.542-2.955-2.542c-1.657,0-3.001,1.343-3.001,3
		c0,1.658,1.344,3.001,3.001,3.001c0.807,0,1.536-0.322,2.075-0.84l7.543,7.854l-1.798,11.198c-0.185-0.036-0.374-0.058-0.568-0.058
		c-1.658,0-3.001,1.344-3.001,3.001s1.343,3.001,3.001,3.001c1.657,0,3-1.344,3-3.001c0-0.518-0.143-0.997-0.373-1.422l9.357-5.254
		l9.291,5.217c-0.243,0.434-0.394,0.926-0.394,1.459c0,1.657,1.343,3.001,3,3.001c1.658,0,3.001-1.344,3.001-3.001
		s-1.343-3.001-3.001-3.001c-0.165,0-0.324,0.023-0.483,0.049l-1.796-11.189l7.543-7.854c0.539,0.518,1.269,0.84,2.075,0.84
		c1.657,0,3.001-1.343,3.001-3.001C278.7,97.096,277.356,95.753,275.699,95.753z"/>
	<circle fill="#EDC36A" cx="219.148" cy="389.608" r="4.826"/>
	<circle fill="#EDC36A" cx="292.967" cy="389.608" r="4.826"/>
	<rect x="157.135" y="446.197" fill="#EDC36A" width="52" height="11.803"/>
</g>
</svg>
