<?xml version="1.0" encoding="utf-8"?>
<!-- Generator: Adobe Illustrator 16.0.0, SVG Export Plug-In . SVG Version: 6.00 Build 0)  -->
<!DOCTYPE svg PUBLIC "-//W3C//DTD SVG 1.1//EN" "http://www.w3.org/Graphics/SVG/1.1/DTD/svg11.dtd">
<svg version="1.1" id="Receptionist_1_" xmlns="http://www.w3.org/2000/svg" xmlns:xlink="http://www.w3.org/1999/xlink" x="0px"
	 y="0px" width="512px" height="512px" viewBox="0 0 512 512" enable-background="new 0 0 512 512" xml:space="preserve">
<circle id="Background_5_" fill="#009244" cx="256" cy="256" r="256"/>
<path id="Shadow" opacity="0.1" d="M509.646,290.733L325.063,106.15H256V512C385.604,512,492.693,415.688,509.646,290.733z"/>
<g id="Receptionist">
	<path fill="#D9B26E" d="M273.117,77.025h-34.269c-45.061,0-81.59,59.958-81.59,102.555c0,0-39.331,147.715-26.509,185.276h250.468
		c12.821-37.561-26.51-185.276-26.51-185.276C354.707,136.982,318.178,77.025,273.117,77.025z"/>
	<path fill="#FFD0AE" d="M349.827,360.184c-74.441,0-57.833-36.507-62.884-73.06H225.25c-5.05,36.553,11.558,73.06-62.884,73.06
		c-47.574,0-63.807,20.847-63.807,66.709v30.9C142,491.754,196.682,512,256.097,512c59.414,0,114.097-20.245,157.537-54.207v-30.9
		C413.634,381.03,397.401,360.184,349.827,360.184z"/>
	<path opacity="0.1" d="M288.031,308.324c-0.162-6.264-0.377-12.73-1.271-19.2h-61.694c-0.89,6.439-1.107,12.877-1.269,19.114
		c8.926,5.721,19.539,9.159,32.184,9.159C268.563,317.397,279.133,313.993,288.031,308.324z"/>
	<path fill="#EFF0F0" d="M349.827,360.184l-58.151-8.003l-35.579,37.7l-35.685-37.7l-58.046,8.003
		c-47.574,0-63.807,20.847-63.807,66.709v30.9C142,491.754,196.682,512,256.097,512c59.414,0,114.097-20.245,157.537-54.207v-30.9
		C413.634,381.03,397.401,360.184,349.827,360.184z"/>
	<ellipse fill="#FFD0AE" cx="181.101" cy="223.44" rx="13.799" ry="16.269"/>
	<ellipse fill="#FFD0AE" cx="330.864" cy="223.44" rx="13.799" ry="16.269"/>
	<path fill="#FFD0AE" d="M269.705,106.525H242.26c-36.089,0-65.346,42.325-65.346,78.415c0,0,2.113,126.771,79.068,126.771
		s79.068-126.771,79.068-126.771C335.051,148.85,305.795,106.525,269.705,106.525z"/>
	<path fill="#D9B26E" d="M255.983,97.858c-69.619,0-90.927,64.707-77.209,109.545c0,0,10.574-8.668,31.946-14.574
		c0,0-1.346-17.474,3.127-40.827c-0.625,22.187,4.029,39.042,4.029,39.042c10.567-2.36,23.27-4.018,38.107-4.018
		c51.544,0,77.208,20.378,77.208,20.378C346.909,162.567,325.602,97.858,255.983,97.858z"/>
	<path opacity="0.1" d="M255.983,187.027c-14.64,0-27.191,1.616-37.674,3.927c0.544,2.555,0.935,3.974,0.935,3.974
		c10.915-2.438,24.035-4.149,39.359-4.149c39.538,0,64.443,10.651,74.587,16.625c0.042-0.318-0.04,0.314,0,0
		C333.165,207.384,307.502,187.027,255.983,187.027z"/>
	<path opacity="0.1" d="M213.889,161.535c-0.109-3.035-0.135-6.222-0.042-9.532c-4.474,23.353-3.127,40.827-3.127,40.827
		c-21.346,5.898-31.918,14.552-31.944,14.573c0.168,1.314-0.2-1.391,0,0c2.29-1.728,13.956-6.652,33.078-10.63
		C211.853,196.772,210.725,182.099,213.889,161.535z"/>
	<path fill="#414042" d="M349.634,360.184c-9.712,0-17.861-0.627-24.725-1.788l-68.937,137.271l-69.075-137.271
		c-6.863,1.161-15.012,1.788-24.724,1.788c-47.574,0-63.807,20.847-63.807,66.709v30.9C141.807,491.754,196.489,512,255.903,512
		c59.415,0,114.097-20.245,157.537-54.207v-30.9C413.44,381.03,397.208,360.184,349.634,360.184z"/>
	<polygon fill="#414042" points="208.347,339.339 162.173,360.184 201.387,395.152 182.054,407.608 255.972,495.667 	"/>
	<polygon fill="#414042" points="303.598,339.339 349.771,360.184 310.558,395.152 329.891,407.608 255.972,495.667 	"/>
	<polygon opacity="0.1" points="297.481,376.146 290.958,376.146 256.231,389.881 221.235,376.146 214.712,376.146 168.69,403.615 
		214.712,389.881 256.097,389.881 297.481,389.881 343.504,403.615 	"/>
	<path opacity="0.1" d="M349.802,360.184l-39.329,34.969l2.604,1.678l40.395-36.595
		C352.266,360.206,351.051,360.184,349.802,360.184z"/>
	<path opacity="0.1" d="M161.807,360.184l39.328,34.969l-2.604,1.678l-40.395-36.595
		C159.343,360.206,160.558,360.184,161.807,360.184z"/>
	<polygon opacity="0.1" points="327.711,410.204 255.972,495.667 184.233,410.204 182.054,411.608 255.972,499.928 329.891,411.608 
			"/>
	<rect x="315.284" y="451.866" fill="#EFF0F0" width="50.325" height="24.801"/>
	<polygon fill="#EFF0F0" points="221.235,332.181 214.494,332.181 186.509,358.057 168.69,403.615 214.712,376.146 219.446,375.914 
			"/>
	<polygon fill="#EFF0F0" points="290.958,332.181 297.7,332.181 325.685,358.057 343.504,403.615 297.481,376.146 292.52,375.914 	
		"/>
	<circle fill="#B09782" cx="340.416" cy="452.568" r="6.143"/>
	<path opacity="0.1" d="M343.831,447.465c0.654,0.977,1.038,2.15,1.038,3.414c0,3.393-2.75,6.143-6.143,6.143
		c-1.264,0-2.438-0.384-3.415-1.038c1.103,1.644,2.976,2.728,5.104,2.728c3.393,0,6.143-2.75,6.143-6.143
		C346.559,450.44,345.475,448.566,343.831,447.465z"/>
</g>
</svg>
