<?xml version="1.0" encoding="utf-8"?>
<!-- Generator: Adobe Illustrator 16.0.0, SVG Export Plug-In . SVG Version: 6.00 Build 0)  -->
<!DOCTYPE svg PUBLIC "-//W3C//DTD SVG 1.1//EN" "http://www.w3.org/Graphics/SVG/1.1/DTD/svg11.dtd">
<svg version="1.1" id="Security_1_" xmlns="http://www.w3.org/2000/svg" xmlns:xlink="http://www.w3.org/1999/xlink" x="0px"
	 y="0px" width="512px" height="512px" viewBox="0 0 512 512" enable-background="new 0 0 512 512" xml:space="preserve">
<circle id="Background_8_" fill="#1B9BAA" cx="256" cy="256" r="256"/>
<path id="Shadow" opacity="0.1" d="M510.87,280.013L330.758,99.9h-74.95v412.098c0.064,0,0.128,0.002,0.192,0.002
	C389.286,512,498.763,410.136,510.87,280.013z"/>
<g id="Security">
	<path fill="#FFD0AE" d="M349.538,360.184c-74.442,0-57.834-36.507-62.884-73.06H224.96c-5.05,36.553,11.558,73.06-62.884,73.06
		c-47.574,0-63.807,20.847-63.807,66.709v30.9C141.71,491.754,196.393,512,255.808,512c59.414,0,114.097-20.245,157.537-54.207
		v-30.9C413.345,381.03,397.111,360.184,349.538,360.184z"/>
	<path opacity="0.1" d="M287.925,308.324c-0.162-6.264-0.377-12.73-1.271-19.2H224.96c-0.89,6.439-1.107,12.877-1.269,19.114
		c8.926,5.721,19.539,9.159,32.184,9.159C268.457,317.397,279.026,313.993,287.925,308.324z"/>
	<path fill="#9DD6FF" d="M349.538,360.184c-9.712,0-17.861-0.627-24.725-1.788l-69.006,7.519l-69.006-7.519
		c-6.863,1.161-15.013,1.788-24.725,1.788c-47.574,0-63.807,20.847-63.807,66.709v30.9C141.71,491.754,196.393,512,255.808,512
		c59.414,0,114.097-20.245,157.537-54.207v-30.9C413.345,381.03,397.111,360.184,349.538,360.184z"/>
	<path fill="#242F41" d="M287.928,366.371h-63.232l21.896,28.781l-5.858,116.395c4.989,0.289,10.012,0.453,15.074,0.453
		c5.402,0,10.761-0.188,16.08-0.518l-5.855-116.33L287.928,366.371z"/>
	<path opacity="0.2" d="M246.592,395.152h19.44c0,0-4.935,1.769-9.72,1.769S246.592,395.152,246.592,395.152z"/>
	<polygon fill="#9DD6FF" points="221.288,332.181 216.546,332.181 186.562,358.057 218.743,403.615 255.808,365.914 	"/>
	<polygon fill="#9DD6FF" points="290.431,332.181 295.068,332.181 325.053,358.057 292.872,403.615 255.808,365.914 	"/>
	<ellipse fill="#FFD0AE" cx="180.995" cy="223.44" rx="13.799" ry="16.269"/>
	<ellipse fill="#FFD0AE" cx="330.758" cy="223.44" rx="13.799" ry="16.269"/>
	<path fill="#FFD0AE" d="M269.599,106.669h-27.445c-36.089,0-65.346,42.325-65.346,78.415c0,0,2.113,126.77,79.068,126.77
		s79.068-126.77,79.068-126.77C334.944,148.994,305.688,106.669,269.599,106.669z"/>
	<path opacity="0.1" d="M330.254,188.002c-3.111-16.222-25.291-23.159-33.205-58.626c-17.294,50.71-103.493,52.277-111.043,58.626
		c-5.013,4.215-5.306,13.511-4.936,19.287c0.344-4.792,1.583-9.883,4.936-12.702c7.55-6.349,93.75-7.916,111.043-58.626
		c7.914,35.467,30.094,42.405,33.205,58.626c0.721,3.752,1.091,7.045,1.251,9.921C331.761,200.543,331.606,195.049,330.254,188.002z
		"/>
	<path fill="#071A26" d="M337.598,209.313c11.648-17.49,25.132-125.358-40.549-122.576
		c-57.978-49.658-162.367,16.564-122.894,122.576l7.457,4.695c0,0-3.157-17.886,4.394-24.235c7.55-6.349,93.75-7.916,111.043-58.626
		c7.914,35.468,30.094,42.405,33.205,58.626c3.112,16.222-0.113,24.235-0.113,24.235L337.598,209.313z"/>
	<path opacity="0.1" d="M218.743,407.608l37.065-38.708l37.064,38.708l35.168-48.722l-0.024-0.007
		c-1.094-0.15-2.168-0.31-3.202-0.484l-31.941,45.22l-37.064-37.701l-37.065,37.701l-31.941-45.22
		c-1.035,0.175-2.108,0.334-3.202,0.484l-0.025,0.007L218.743,407.608z"/>
	<path fill="#EDC36A" d="M98.27,419v30.75h19.958C118.228,432.768,109.292,419,98.27,419z"/>
	<path fill="#EFF0F0" d="M98.27,421v26.75h17.361C115.631,432.977,107.858,421,98.27,421z"/>
	<rect x="135.713" y="356.613" fill="#242F41" width="50.136" height="6.372"/>
	<rect x="325.766" y="356.613" fill="#242F41" width="50.137" height="6.372"/>
	<rect x="301" y="441" fill="#242F41" width="48.667" height="10"/>
</g>
</svg>
