<?xml version="1.0" encoding="utf-8"?>
<!-- Generator: Adobe Illustrator 16.0.0, SVG Export Plug-In . SVG Version: 6.00 Build 0)  -->
<!DOCTYPE svg PUBLIC "-//W3C//DTD SVG 1.1//EN" "http://www.w3.org/Graphics/SVG/1.1/DTD/svg11.dtd">
<svg version="1.1" id="Shopkeeper_1_" xmlns="http://www.w3.org/2000/svg" xmlns:xlink="http://www.w3.org/1999/xlink" x="0px"
	 y="0px" width="512px" height="512px" viewBox="0 0 512 512" enable-background="new 0 0 512 512" xml:space="preserve">
<circle id="Background_31_" fill="#9ACCB0" cx="255.928" cy="256.034" r="256"/>
<path id="Shadow" opacity="0.1" d="M505.208,314.783L256.069,65.643L256.016,512C377.165,511.992,478.646,427.828,505.208,314.783z"
	/>
<g id="Shopkeeper">
	<path fill="#414042" d="M311.997,308.566c0,25.404-30.596,46-56,46l0,0c-25.405,0-56-20.596-56-46l10-196.889
		c0-25.405,20.595-46,46-46l0,0c25.405,0,46,20.595,46,46L311.997,308.566z"/>
	<ellipse fill="#FF9999" cx="255.603" cy="98.552" rx="28.553" ry="10.982"/>
	<path fill="#414042" d="M272.217,96.761h-32.44c-42.657,0-77.237,44.574-77.237,82.58c0,0-8.119,123.96,93.457,123.96
		c101.577,0,93.458-123.96,93.458-123.96C349.454,141.335,314.874,96.761,272.217,96.761z"/>
	<path opacity="0.1" d="M201.139,286.067l-1.143,22.499c0,25.404,30.595,46,56,46s56-20.596,56-46l-1.144-22.499
		c-13.271,10.426-31.052,17.234-54.857,17.234S214.411,296.493,201.139,286.067z"/>
	<path fill="#FFD0AE" d="M349.658,360.218c-74.441,0-57.833-36.507-62.884-73.06h-61.693c-5.05,36.553,11.558,73.06-62.884,73.06
		c-47.574,0-63.807,20.847-63.807,66.709v30.899c43.44,33.962,98.123,54.208,157.537,54.208c59.415,0,114.098-20.246,157.537-54.207
		v-30.9C413.465,381.064,397.232,360.218,349.658,360.218z"/>
	<path opacity="0.1" d="M288.045,308.358c-0.161-6.265-0.377-12.731-1.271-19.2h-61.693c-0.89,6.439-1.107,12.876-1.269,19.113
		c8.926,5.721,19.539,9.159,32.184,9.159C268.578,317.431,279.147,314.027,288.045,308.358z"/>
	<path fill="#ECEFC5" d="M349.658,360.218c-9.712,0-17.861-0.627-24.725-1.789c0,0-2.14,57.52-69.006,57.52
		c-66.866,0-69.006-57.52-69.006-57.52c-6.863,1.162-15.012,1.789-24.724,1.789c-47.574,0-63.807,20.847-63.807,66.709v30.899
		c43.44,33.962,98.123,54.208,157.537,54.208c59.415,0,114.098-20.246,157.537-54.207v-30.9
		C413.465,381.064,397.232,360.218,349.658,360.218z"/>
	<ellipse fill="#FFD0AE" cx="181.115" cy="223.474" rx="13.799" ry="16.269"/>
	<ellipse fill="#FFD0AE" cx="330.878" cy="223.474" rx="13.799" ry="16.269"/>
	<path fill="#FFD0AE" d="M269.719,106.703h-27.445c-36.089,0-65.345,42.325-65.345,78.415c0,0,2.113,126.771,79.068,126.771
		c76.956,0,79.068-126.771,79.068-126.771C335.064,149.028,305.809,106.703,269.719,106.703z"/>
	<path fill="#414042" d="M269.719,105.319h-27.444c-36.09,0-89.674,53.056-62.293,119.155c3.714-31.596,28.476-6.103,36.947-50.309
		c14.035,57.926,110.871,7.051,115.085,50.309C357.278,156.037,305.809,105.319,269.719,105.319z"/>
	<path opacity="0.1" d="M216.928,174.165c-8.471,44.207-33.233,18.713-36.947,50.309l0.91,2.95
		c3.669-31.216,28.134-6.029,36.502-49.704c13.866,57.229,109.538,6.966,113.701,49.704l0.919-2.95
		C327.799,181.216,230.963,232.091,216.928,174.165z"/>
	<path fill="#F6AAA5" d="M325.72,356.034v97.5H188.136v-97.5h-24.5v138.462c28.908,11.318,60.373,17.538,93.292,17.538
		s64.384-6.22,93.292-17.538V356.034H325.72z"/>
	<path opacity="0.1" d="M325.72,453.534v-95.143c-0.753-0.129-1.491-0.264-2.213-0.406v91.455H190.349v-91.455
		c-0.722,0.143-1.46,0.277-2.212,0.406v95.143H325.72z"/>
	<rect x="286.063" y="472.034" opacity="0.7" fill="#FFFFFF" width="39.657" height="21.25"/>
	<polygon opacity="0.1" points="325.72,473.328 325.72,493.284 287.356,493.284 287.356,494.578 327.015,494.578 327.015,473.328 	
		"/>
	<circle fill="#58595B" cx="305.891" cy="472.034" r="5"/>
	<path opacity="0.1" d="M308.671,468.879c0.532,0.795,0.845,1.751,0.845,2.78c0,2.761-2.238,5-5,5c-1.029,0-1.984-0.313-2.779-0.846
		c0.896,1.339,2.422,2.221,4.154,2.221c2.762,0,5-2.239,5-5C310.891,471.302,310.009,469.776,308.671,468.879z"/>
</g>
</svg>
