<?xml version="1.0" encoding="utf-8"?>
<!-- Generator: Adobe Illustrator 16.0.0, SVG Export Plug-In . SVG Version: 6.00 Build 0)  -->
<!DOCTYPE svg PUBLIC "-//W3C//DTD SVG 1.1//EN" "http://www.w3.org/Graphics/SVG/1.1/DTD/svg11.dtd">
<svg version="1.1" id="Stewardess_1_" xmlns="http://www.w3.org/2000/svg" xmlns:xlink="http://www.w3.org/1999/xlink" x="0px"
	 y="0px" width="512px" height="512px" viewBox="0 0 512 512" enable-background="new 0 0 512 512" xml:space="preserve">
<circle id="Background_8_" fill="#1B9BAA" cx="256" cy="256" r="256"/>
<path id="Shadow" opacity="0.1" d="M509.407,292.438L290.635,73.667H256V512C385.013,512,491.716,416.563,509.407,292.438z"/>
<g id="Stewardess">
	<path fill="#FFD0AE" d="M349.73,360.184c-74.441,0-57.833-36.507-62.884-73.06h-61.693c-5.05,36.553,11.558,73.06-62.884,73.06
		c-47.574,0-63.807,20.847-63.807,66.709v30.9C141.903,491.754,196.585,512,256,512c59.415,0,114.097-20.245,157.537-54.207v-30.9
		C413.537,381.03,397.305,360.184,349.73,360.184z"/>
	<path opacity="0.1" d="M288.117,308.324c-0.161-6.264-0.377-12.73-1.271-19.2h-61.693c-0.89,6.439-1.107,12.877-1.269,19.114
		c8.926,5.721,19.539,9.159,32.184,9.159C268.65,317.397,279.22,313.993,288.117,308.324z"/>
	<path fill="#E4E5E6" d="M349.73,360.184c-9.712,0-17.861-0.627-24.725-1.788H186.994c-6.863,1.161-15.012,1.788-24.724,1.788
		c-47.574,0-63.807,20.847-63.807,66.709v30.9C141.903,491.754,196.585,512,256,512c59.415,0,114.097-20.245,157.537-54.207v-30.9
		C413.537,381.03,397.305,360.184,349.73,360.184z"/>
	<path fill="#7CCDCD" d="M349.73,360.184c-9.712,0-17.861-0.627-24.725-1.788l-28.664,17.519L255.817,499.5l-40.159-123.586
		l-28.664-17.519c-6.863,1.161-15.012,1.788-24.724,1.788c-47.574,0-63.807,20.847-63.807,66.709v30.9
		C141.903,491.754,196.585,512,256,512c59.415,0,114.097-20.245,157.537-54.207v-30.9
		C413.537,381.03,397.305,360.184,349.73,360.184z"/>
	<polygon opacity="0.1" points="307.385,376.146 204.615,376.146 168.593,403.615 256,389.881 343.407,403.615 	"/>
	<polygon opacity="0.1" points="255.817,492.871 215.658,369.285 215.658,375.914 255.817,499.5 296.342,375.914 296.342,369.285 	
		"/>
	<polygon fill="#EFF0F0" points="221.138,332.181 216.397,332.181 186.412,358.057 168.593,403.615 204.615,376.146 
		215.658,375.914 	"/>
	<polygon fill="#EFF0F0" points="290.861,332.181 295.604,332.181 325.588,358.057 343.407,403.615 307.385,376.146 
		296.342,375.914 	"/>
	<path fill="#F8B913" d="M272.289,96.728h-32.44c-42.657,0-77.237,44.574-77.237,82.58c0,0-8.119,123.96,93.457,123.96
		c101.576,0,93.458-123.96,93.458-123.96C349.526,141.301,314.945,96.728,272.289,96.728z"/>
	<ellipse fill="#FFD0AE" cx="181.188" cy="223.44" rx="13.799" ry="16.269"/>
	<ellipse fill="#FFD0AE" cx="330.95" cy="223.44" rx="13.799" ry="16.269"/>
	<path fill="#FFD0AE" d="M269.791,106.669h-27.445c-36.089,0-65.345,42.325-65.345,78.415c0,0,2.112,126.77,79.068,126.77
		s79.068-126.77,79.068-126.77C335.137,148.994,305.881,106.669,269.791,106.669z"/>
	<path fill="#FFB700" d="M241.559,105.286h27.445c36.09,0,89.674,53.056,62.294,119.155c-3.714-31.596-28.477-6.103-36.947-50.309
		c-14.035,57.926-110.871,7.051-115.084,50.309C154,156.002,205.47,105.286,241.559,105.286z"/>
	<path opacity="0.1" d="M294.351,174.131c8.471,44.207,33.233,18.713,36.947,50.309l-0.91,2.95
		c-3.669-31.216-28.134-6.029-36.502-49.704c-13.866,57.229-109.538,6.966-113.701,49.704l-0.919-2.95
		C183.479,181.182,280.315,232.057,294.351,174.131z"/>
	<circle fill="#EFF0F0" cx="180.053" cy="239.709" r="4.307"/>
	<circle fill="#EFF0F0" cx="332.084" cy="239.709" r="4.307"/>
	<circle opacity="0.3" cx="282.781" cy="463" r="5"/>
	<path opacity="0.1" d="M285.561,458.846c0.533,0.795,0.846,1.75,0.846,2.779c0,2.762-2.239,5-5,5c-1.029,0-1.985-0.313-2.78-0.846
		c0.897,1.339,2.423,2.221,4.155,2.221c2.761,0,5-2.238,5-5C287.781,461.268,286.898,459.742,285.561,458.846z"/>
	<circle opacity="0.8" fill="#FFFFFF" cx="358.198" cy="428.568" r="6.143"/>
	<path opacity="0.1" d="M361.613,423.465c0.654,0.977,1.038,2.15,1.038,3.414c0,3.393-2.75,6.143-6.143,6.143
		c-1.264,0-2.438-0.384-3.414-1.038c1.102,1.644,2.976,2.728,5.104,2.728c3.393,0,6.143-2.75,6.143-6.143
		C364.341,426.44,363.257,424.566,361.613,423.465z"/>
	<circle opacity="0.3" cx="302.781" cy="394.861" r="5"/>
	<path opacity="0.1" d="M305.561,390.706c0.533,0.796,0.846,1.751,0.846,2.78c0,2.762-2.239,5-5,5c-1.029,0-1.985-0.313-2.78-0.846
		c0.897,1.339,2.423,2.221,4.155,2.221c2.761,0,5-2.238,5-5C307.781,393.129,306.898,391.604,305.561,390.706z"/>
	<path opacity="0.1" d="M321.044,117.689c-13.296-12.584-30.266-20.961-48.755-20.961h-32.44c-18.491,0-35.461,8.378-48.758,20.964
		c8.57,8.058,46.096,42.299,64.907,42.299C274.811,159.99,312.453,125.742,321.044,117.689z"/>
	<path fill="#7CCDCD" d="M290.635,73.667l-1.871,1.833l-27.963-33.167l-4.803,7.208l-4.662-7.208L223.374,75.5l-1.871-1.833
		l-32.189,39.669c0,0,45.365,43.988,66.685,43.988s66.826-43.988,66.826-43.988L290.635,73.667z"/>
	<polygon opacity="0.4" fill="#FFFFFF" points="290.635,73.667 256.069,105.333 221.503,73.667 220.546,74.876 256.069,107.5 
		291.604,74.864 	"/>
	<path fill="#2B3E3E" d="M300.15,358.543c0,5.522-5.031,10-11.239,10h-65.823c-6.207,0-11.239-4.478-11.239-10v-24.479
		c0-5.523,5.032-10,11.239-10c0,0,18.689,8.117,32.912,8.117s32.911-8.117,32.911-8.117c6.208,0,11.239,4.477,11.239,10V358.543z"/>
	<path opacity="0.1" d="M256,332.181c-8.505,0-18.604-2.902-25.351-5.236c-4.945,6.24-12.298,25.188-16.11,38.08
		c2.061,2.15,5.124,3.519,8.549,3.519h65.823c3.274,0,6.212-1.253,8.266-3.24c-3.768-12.829-11.133-31.874-16.113-38.259
		C274.318,329.359,264.385,332.181,256,332.181z"/>
	<path fill="#2B3E3E" d="M276.783,327.667h-41.932c-5.522,0-20,40.729-20,48.247s31.716,33.586,40.966,33.586
		c9.25,0,40.966-26.067,40.966-33.586S282.306,327.667,276.783,327.667z"/>
	<path fill="#5D9A9A" d="M296.783,375.914c0-0.913-0.215-2.318-0.6-4.078l-44.17-44.169h-5.657l50.004,50.004
		C296.63,377.013,296.783,376.419,296.783,375.914z"/>
	<path fill="#F9AE40" d="M234.851,327.667c-0.665,0-1.461,0.596-2.346,1.648l57.17,57.17c0.981-1.016,1.887-2.004,2.702-2.955
		l-55.864-55.863H234.851z"/>
	<path fill="#F9AE40" d="M221.377,352.691l49.526,49.526c1.09-0.75,2.193-1.539,3.3-2.356l-51.273-51.273
		C222.4,349.945,221.881,351.319,221.377,352.691z"/>
	<polygon fill="#FFC940" points="372.262,447 344.135,447 330.529,439 385.867,439 	"/>
	<rect x="205.317" y="394.861" opacity="0.3" width="9.534" height="2.139"/>
	<rect x="225.145" y="460.861" opacity="0.3" width="9.534" height="2.139"/>
	<path fill="#FFC940" d="M284.653,123.603h-24.02c-1.13-1.237-2.751-2.018-4.559-2.018s-3.428,0.781-4.559,2.018h-24.02
		c0,4.292,3.471,7.826,23.974,8.277c1.132,1.266,2.772,2.067,4.604,2.067c1.831,0,3.472-0.801,4.604-2.067
		C281.182,131.428,284.653,127.895,284.653,123.603z"/>
	<path opacity="0.1" d="M260.679,130.212c-1.132,1.266-2.772,2.067-4.604,2.067c-1.832,0-3.472-0.801-4.604-2.067
		c-17.775-0.391-22.747-3.099-23.755-6.61h-0.22c0,4.292,3.472,7.826,23.975,8.277c1.132,1.266,2.772,2.067,4.604,2.067
		c1.831,0,3.472-0.801,4.604-2.067c20.503-0.451,23.975-3.984,23.975-8.277h-0.219C283.426,127.113,278.455,129.821,260.679,130.212
		z"/>
</g>
</svg>
