<?xml version="1.0" encoding="utf-8"?>
<!-- Generator: Adobe Illustrator 16.0.0, SVG Export Plug-In . SVG Version: 6.00 Build 0)  -->
<!DOCTYPE svg PUBLIC "-//W3C//DTD SVG 1.1//EN" "http://www.w3.org/Graphics/SVG/1.1/DTD/svg11.dtd">
<svg version="1.1" id="Student_1_" xmlns="http://www.w3.org/2000/svg" xmlns:xlink="http://www.w3.org/1999/xlink" x="0px" y="0px"
	 width="512px" height="512px" viewBox="0 0 512 512" enable-background="new 0 0 512 512" xml:space="preserve">
<circle id="Background_31_" fill="#9ACCB0" cx="255.928" cy="256.034" r="256"/>
<path id="Shadow" opacity="0.1" d="M505.208,314.783L256.069,65.643L256.016,512C377.165,511.992,478.646,427.828,505.208,314.783z"
	/>
<g id="Student">
	<path fill="#414042" d="M311.997,308.566c0,25.404-30.596,46-56,46l0,0c-25.405,0-56-20.596-56-46l10-196.889
		c0-25.405,20.595-46,46-46l0,0c25.405,0,46,20.595,46,46L311.997,308.566z"/>
	<ellipse fill="#EFF0F0" cx="255.603" cy="98.552" rx="28.553" ry="10.982"/>
	<path fill="#414042" d="M272.217,96.761h-32.44c-42.657,0-77.237,44.574-77.237,82.58c0,0-8.119,123.96,93.457,123.96
		c101.577,0,93.458-123.96,93.458-123.96C349.454,141.335,314.874,96.761,272.217,96.761z"/>
	<path opacity="0.1" d="M201.139,286.067l-1.143,22.499c0,25.404,30.595,46,56,46s56-20.596,56-46l-1.144-22.499
		c-13.271,10.426-31.052,17.234-54.857,17.234S214.411,296.493,201.139,286.067z"/>
	<path fill="#FFD0AE" d="M349.658,360.218c-74.441,0-57.833-36.507-62.884-73.06h-61.693c-5.05,36.553,11.558,73.06-62.884,73.06
		c-47.574,0-63.807,20.847-63.807,66.709v30.899c43.44,33.962,98.123,54.208,157.537,54.208c59.415,0,114.098-20.246,157.537-54.207
		v-30.9C413.465,381.064,397.232,360.218,349.658,360.218z"/>
	<path opacity="0.1" d="M288.045,308.358c-0.161-6.265-0.377-12.731-1.271-19.2h-61.693c-0.89,6.439-1.107,12.876-1.269,19.113
		c8.926,5.721,19.539,9.159,32.184,9.159C268.578,317.431,279.147,314.027,288.045,308.358z"/>
	<path fill="#ECEFC5" d="M349.658,360.218c-9.712,0-17.861-0.627-24.725-1.789c0,0,15.36,32.52-69.006,32.52
		c-84.366,0-69.006-32.52-69.006-32.52c-6.863,1.162-15.012,1.789-24.724,1.789c-47.574,0-63.807,20.847-63.807,66.709v30.899
		c43.44,33.962,98.123,54.208,157.537,54.208c59.415,0,114.098-20.246,157.537-54.207v-30.9
		C413.465,381.064,397.232,360.218,349.658,360.218z"/>
	<ellipse fill="#FFD0AE" cx="181.115" cy="223.474" rx="13.799" ry="16.269"/>
	<ellipse fill="#FFD0AE" cx="330.878" cy="223.474" rx="13.799" ry="16.269"/>
	<path fill="#FFD0AE" d="M269.719,106.703h-27.445c-36.089,0-65.345,42.325-65.345,78.415c0,0,2.113,126.771,79.068,126.771
		c76.956,0,79.068-126.771,79.068-126.771C335.064,149.028,305.809,106.703,269.719,106.703z"/>
	<path fill="#414042" d="M269.719,105.319h-27.444c-36.09,0-89.674,53.056-62.293,119.155c3.714-31.596,28.476-6.103,36.947-50.309
		c14.035,57.926,110.871,7.051,115.085,50.309C357.278,156.037,305.809,105.319,269.719,105.319z"/>
	<path opacity="0.1" d="M216.928,174.165c-8.471,44.207-33.233,18.713-36.947,50.309l0.91,2.95
		c3.669-31.216,28.134-6.029,36.502-49.704c13.866,57.229,109.538,6.966,113.701,49.704l0.919-2.95
		C327.799,181.216,230.963,232.091,216.928,174.165z"/>
	<polygon fill="#006838" points="295.644,343.526 256.009,426.773 216.212,343.526 145.301,361.175 256.009,435.231 
		366.555,361.175 	"/>
	<polygon opacity="0.1" points="365.403,360.889 366.555,361.175 256.009,435.231 145.32,361.188 143.647,361.556 256.009,437.267 
		368.251,361.514 	"/>
	<path opacity="0.1" d="M273.32,390.414c-0.651,0.043-1.297,0.086-1.964,0.124l-15.348,32.235l-15.408-32.229
		c-0.669-0.037-1.317-0.081-1.971-0.123l17.378,36.353L273.32,390.414z"/>
	<polygon fill="#ECEFC5" points="250.103,414.42 163.672,356.603 156.837,358.304 254.512,423.642 	"/>
	<polygon fill="#ECEFC5" points="348.184,356.603 261.955,414.284 257.572,423.489 355.019,358.304 	"/>
	<path fill="#BE1E2D" d="M256.009,435.231l-69.199-46.29c0,0,5.184,26.3,24.331,43.292c7.594,6.739,24.543,12.745,35.798,15.382
		c-1.169,1.615-1.171,5.25-0.389,9.884c-6.835,6.461-13.822,14.605-17.712,20.924c-4.745,7.706-1.237,24.902,0.205,25.79
		c1.442,0.888,18.376-3.722,23.121-11.429c1.247-2.025,2.518-4.423,3.759-7.038c1.242,2.615,2.512,5.013,3.759,7.038
		c4.745,7.707,21.679,12.316,23.121,11.429s4.949-18.084,0.204-25.79c-3.89-6.318-10.876-14.463-17.711-20.924
		c0.781-4.632,0.78-8.265-0.388-9.882c11.255-2.636,28.213-8.644,35.809-15.386c19.08-16.933,24.318-43.242,24.318-43.242
		L256.009,435.231z"/>
	<path opacity="0.1" d="M211.14,432.233c-15.271-13.553-21.655-33.012-23.616-40.341l-0.715-0.479c0,0,5.184,26.301,24.331,43.292
		c7.422,6.587,23.769,12.465,35.013,15.189c0.144-0.955,0.394-1.739,0.785-2.28C235.684,444.979,218.734,438.973,211.14,432.233z"/>
	<path opacity="0.1" d="M300.717,432.231c-7.596,6.742-24.554,12.75-35.809,15.386c0.391,0.541,0.641,1.326,0.784,2.28
		c11.245-2.723,27.6-8.603,35.024-15.192c19.08-16.933,24.318-43.242,24.318-43.242l-0.722,0.483
		C322.34,399.278,315.932,418.729,300.717,432.231z"/>
	<path opacity="0.1" d="M282.803,504.213c-1.442,0.888-18.376-3.722-23.121-11.429c-1.247-2.025-2.518-4.423-3.759-7.038
		c-1.241,2.615-2.512,5.013-3.759,7.038c-4.745,7.707-21.679,12.316-23.121,11.429c-0.846-0.521-2.402-6.661-2.585-13.202
		c-0.22,7.384,1.633,15.089,2.585,15.676c1.442,0.888,18.376-3.723,23.121-11.429c1.247-2.025,2.518-4.423,3.759-7.039
		c1.242,2.616,2.512,5.014,3.759,7.039c4.745,7.706,21.679,12.316,23.121,11.429c0.953-0.587,2.806-8.292,2.586-15.676
		C285.205,497.552,283.649,503.691,282.803,504.213z"/>
	<rect x="245.267" y="446.993" fill="#006838" width="21.322" height="12.041"/>
	<rect x="245.267" y="451.014" fill="#ECEFC5" width="21.322" height="4"/>
</g>
</svg>
