<?xml version="1.0" encoding="utf-8"?>
<!-- Generator: Adobe Illustrator 16.0.0, SVG Export Plug-In . SVG Version: 6.00 Build 0)  -->
<!DOCTYPE svg PUBLIC "-//W3C//DTD SVG 1.1//EN" "http://www.w3.org/Graphics/SVG/1.1/DTD/svg11.dtd">
<svg version="1.1" id="Surgeon_1_" xmlns="http://www.w3.org/2000/svg" xmlns:xlink="http://www.w3.org/1999/xlink" x="0px" y="0px"
	 width="512px" height="512px" viewBox="0 0 512 512" enable-background="new 0 0 512 512" xml:space="preserve">
<circle id="Background_5_" fill="#9ACCB0" cx="256" cy="256" r="256"/>
<path id="Shadow" opacity="0.1" d="M511.513,271.613L315.263,75.364h-59.082v436.634
	C392.239,511.903,503.444,405.666,511.513,271.613z"/>
<g id="Surgeon">
	<path fill="#FFD0AE" d="M349.912,360.184c-74.442,0-57.834-36.507-62.884-73.06h-61.694c-5.05,36.553,11.558,73.06-62.884,73.06
		c-47.574,0-63.807,20.847-63.807,66.709v30.9C142.084,491.754,196.767,512,256.181,512c59.415,0,114.097-20.245,157.538-54.207
		v-30.9C413.719,381.03,397.485,360.184,349.912,360.184z"/>
	<path opacity="0.1" d="M288.299,308.324c-0.162-6.264-0.377-12.73-1.271-19.2h-61.694c-0.89,6.439-1.107,12.877-1.269,19.114
		c8.926,5.721,19.539,9.159,32.184,9.159C268.831,317.397,279.4,313.993,288.299,308.324z"/>
	<ellipse fill="#FFD0AE" cx="181.369" cy="223.44" rx="13.799" ry="16.269"/>
	<ellipse fill="#FFD0AE" cx="331.132" cy="223.44" rx="13.799" ry="16.269"/>
	<path fill="#FFD0AE" d="M269.973,106.669h-27.445c-36.089,0-65.345,42.325-65.345,78.415c0,0,2.113,126.77,79.068,126.77
		s79.068-126.77,79.068-126.77C335.318,148.994,306.063,106.669,269.973,106.669z"/>
	<path fill="#55AEB8" d="M359.72,358.885c-7.124,0-33.399-7.341-38.95-7.979c0,0-46.838,55.958-64.588,55.958
		c-17.75,0-64.621-55.469-64.621-55.469c-5.636,0.664-32.031,8.016-39.302,8.016c-44.667,0-70.52,38.45-73.513,81.107
		C124.763,484.78,187.291,512,256.181,512c68.709,0,131.091-27.072,177.073-71.127C430.381,398.019,404.511,358.885,359.72,358.885z
		"/>
	<path opacity="0.2" fill="#FFFFFF" d="M256.26,431.313c21.453,0,72.516-47.508,88.082-75.096
		c-9.591-2.169-20.264-4.931-23.572-5.311c0,0-46.838,55.958-64.588,55.958c-17.75,0-64.621-55.469-64.621-55.469
		c-3.333,0.393-13.926,3.124-23.531,5.291C183.481,383.911,234.76,431.313,256.26,431.313z"/>
	<path fill="#805959" d="M181.182,185.083c0-36.089,25.256-68.415,61.345-68.415h27.445c36.09,0,62.346,32.325,62.346,68.415
		c0,0-0.164,18.659-2.017,32.641l7.924-9c4.243-22.818,4.543-40.586,4.543-40.586c0-39.49-32.013-85.803-71.503-85.803h-30.031
		c-39.49,0-71.502,46.313-71.502,85.803c0,0,0.299,17.768,4.543,40.586l8.924,9C181.346,203.743,181.182,185.083,181.182,185.083z"
		/>
	<polygon fill="#FFFFFF" points="317.114,232.153 317.128,232 256.409,223.44 256.091,223.44 195.372,232 195.386,232.153 
		173.273,202.994 173.983,208.725 195.735,236.439 195.772,236.411 200.091,284 233.545,312.507 278.955,312.507 312.409,284 
		316.728,236.411 316.765,236.439 338.518,208.725 339.229,202.994 	"/>
	<path fill="#55AEB8" d="M347.396,153.984c0-37.731-23.698-91.981-65.269-91.981h-25.842h-25.842
		c-41.569,0-65.268,54.25-65.268,91.981c0,0-1.257,14.817,3.894,14.817c2.586,0,44.901,0,87.217,0s84.631,0,87.217,0
		C348.653,168.801,347.396,153.984,347.396,153.984z"/>
</g>
</svg>
